<svg version="1.1" viewBox="0.0 0.0 240.0 175.0" fill="none" stroke="none" stroke-linecap="square" stroke-miterlimit="10" xmlns:xlink="http://www.w3.org/1999/xlink" xmlns="http://www.w3.org/2000/svg"><clipPath id="p.0"><path d="m0 0l240.0 0l0 175.0l-240.0 0l0 -175.0z" clip-rule="nonzero"/></clipPath><g clip-path="url(#p.0)"><path fill="#000000" fill-opacity="0.0" d="m0 0l240.0 0l0 175.0l-240.0 0z" fill-rule="evenodd"/><path fill="#000000" fill-opacity="0.0" d="m-385.0 30.858267l380.0315 0l0 132.50394l-380.0315 0z" fill-rule="evenodd"/><path fill="#000000" d="m-375.15625 53.48139l1.65625 -0.140625q0.125 1.0 0.546875 1.640625q0.4375 0.640625 1.34375 1.046875q0.921875 0.390625 2.0625 0.390625q1.0 0 1.78125 -0.296875q0.78125 -0.296875 1.15625 -0.8125q0.375 -0.53125 0.375 -1.15625q0 -0.625 -0.375 -1.09375q-0.359375 -0.46875 -1.1875 -0.796875q-0.546875 -0.203125 -2.390625 -0.640625q-1.828125 -0.453125 -2.5625 -0.84375q-0.96875 -0.5 -1.4375 -1.234375q-0.46875 -0.75 -0.46875 -1.671875q0 -1.0 0.578125 -1.875q0.578125 -0.890625 1.671875 -1.34375q1.109375 -0.453125 2.453125 -0.453125q1.484375 0 2.609375 0.484375q1.140625 0.46875 1.75 1.40625q0.609375 0.921875 0.65625 2.09375l-1.6875 0.125q-0.140625 -1.265625 -0.9375 -1.90625q-0.78125 -0.65625 -2.3125 -0.65625q-1.609375 0 -2.34375 0.59375q-0.734375 0.59375 -0.734375 1.421875q0 0.71875 0.53125 1.171875q0.5 0.46875 2.65625 0.96875q2.15625 0.484375 2.953125 0.84375q1.171875 0.53125 1.71875 1.359375q0.5625 0.828125 0.5625 1.90625q0 1.0625 -0.609375 2.015625q-0.609375 0.9375 -1.75 1.46875q-1.140625 0.515625 -2.578125 0.515625q-1.8125 0 -3.046875 -0.53125q-1.21875 -0.53125 -1.921875 -1.59375q-0.6875 -1.0625 -0.71875 -2.40625zm12.834198 4.296875l0 -13.359375l1.640625 0l0 7.625l3.890625 -3.9375l2.109375 0l-3.6875 3.59375l4.0625 6.078125l-2.015625 0l-3.203125 -4.953125l-1.15625 1.125l0 3.828125l-1.640625 0zm9.328125 -11.46875l0 -1.890625l1.640625 0l0 1.890625l-1.640625 0zm0 11.46875l0 -9.671875l1.640625 0l0 9.671875l-1.640625 0zm4.144806 0l0 -9.671875l1.46875 0l0 1.375q1.0625 -1.59375 3.078125 -1.59375q0.875 0 1.609375 0.3125q0.734375 0.3125 1.09375 0.828125q0.375 0.5 0.515625 1.203125q0.09375 0.453125 0.09375 1.59375l0 5.953125l-1.640625 0l0 -5.890625q0 -1.0 -0.203125 -1.484375q-0.1875 -0.5 -0.671875 -0.796875q-0.484375 -0.296875 -1.140625 -0.296875q-1.046875 0 -1.8125 0.671875q-0.75 0.65625 -0.75 2.515625l0 5.28125l-1.640625 0zm15.559021 0l0 -9.671875l1.46875 0l0 1.359375q0.453125 -0.71875 1.203125 -1.140625q0.765625 -0.4375 1.71875 -0.4375q1.078125 0 1.765625 0.453125q0.6875 0.4375 0.96875 1.234375q1.15625 -1.6875 2.984375 -1.6875q1.453125 0 2.21875 0.796875q0.78125 0.796875 0.78125 2.453125l0 6.640625l-1.640625 0l0 -6.09375q0 -0.984375 -0.15625 -1.40625q-0.15625 -0.4375 -0.578125 -0.703125q-0.421875 -0.265625 -0.984375 -0.265625q-1.015625 0 -1.6875 0.6875q-0.671875 0.671875 -0.671875 2.15625l0 5.625l-1.640625 0l0 -6.28125q0 -1.09375 -0.40625 -1.640625q-0.40625 -0.546875 -1.3125 -0.546875q-0.6875 0 -1.28125 0.359375q-0.59375 0.359375 -0.859375 1.0625q-0.25 0.703125 -0.25 2.03125l0 5.015625l-1.640625 0zm21.868958 0l0 -1.421875q-1.125 1.640625 -3.0625 1.640625q-0.859375 0 -1.609375 -0.328125q-0.734375 -0.328125 -1.09375 -0.828125q-0.359375 -0.5 -0.5 -1.21875q-0.109375 -0.46875 -0.109375 -1.53125l0 -5.984375l1.640625 0l0 5.359375q0 1.28125 0.109375 1.734375q0.15625 0.640625 0.65625 1.015625q0.5 0.375 1.234375 0.375q0.734375 0 1.375 -0.375q0.65625 -0.390625 0.921875 -1.03125q0.265625 -0.65625 0.265625 -1.890625l0 -5.1875l1.640625 0l0 9.671875l-1.46875 0zm3.391327 -2.890625l1.625 -0.25q0.125 0.96875 0.75 1.5q0.625 0.515625 1.75 0.515625q1.125 0 1.671875 -0.453125q0.546875 -0.46875 0.546875 -1.09375q0 -0.546875 -0.484375 -0.875q-0.328125 -0.21875 -1.671875 -0.546875q-1.8125 -0.46875 -2.515625 -0.796875q-0.6875 -0.328125 -1.046875 -0.90625q-0.359375 -0.59375 -0.359375 -1.3125q0 -0.640625 0.296875 -1.1875q0.296875 -0.5625 0.8125 -0.921875q0.375 -0.28125 1.03125 -0.46875q0.671875 -0.203125 1.421875 -0.203125q1.140625 0 2.0 0.328125q0.859375 0.328125 1.265625 0.890625q0.421875 0.5625 0.578125 1.5l-1.609375 0.21875q-0.109375 -0.75 -0.640625 -1.171875q-0.515625 -0.421875 -1.46875 -0.421875q-1.140625 0 -1.625 0.375q-0.46875 0.375 -0.46875 0.875q0 0.3125 0.1875 0.578125q0.203125 0.265625 0.640625 0.4375q0.234375 0.09375 1.4375 0.421875q1.75 0.453125 2.4375 0.75q0.6875 0.296875 1.078125 0.859375q0.390625 0.5625 0.390625 1.40625q0 0.828125 -0.484375 1.546875q-0.46875 0.71875 -1.375 1.125q-0.90625 0.390625 -2.046875 0.390625q-1.875 0 -2.875 -0.78125q-0.984375 -0.78125 -1.25 -2.328125zm13.5625 1.421875l0.234375 1.453125q-0.6875 0.140625 -1.234375 0.140625q-0.890625 0 -1.390625 -0.28125q-0.484375 -0.28125 -0.6875 -0.734375q-0.203125 -0.46875 -0.203125 -1.9375l0 -5.578125l-1.203125 0l0 -1.265625l1.203125 0l0 -2.390625l1.625 -0.984375l0 3.375l1.65625 0l0 1.265625l-1.65625 0l0 5.671875q0 0.6875 0.078125 0.890625q0.09375 0.203125 0.28125 0.328125q0.203125 0.109375 0.578125 0.109375q0.265625 0 0.71875 -0.0625zm8.288483 1.46875l-1.515625 0l0 -13.359375l1.640625 0l0 4.765625q1.046875 -1.296875 2.65625 -1.296875q0.890625 0 1.6875 0.359375q0.796875 0.359375 1.3125 1.015625q0.515625 0.640625 0.796875 1.5625q0.296875 0.921875 0.296875 1.96875q0 2.484375 -1.234375 3.84375q-1.21875 1.359375 -2.953125 1.359375q-1.703125 0 -2.6875 -1.4375l0 1.21875zm-0.015625 -4.90625q0 1.734375 0.484375 2.515625q0.765625 1.265625 2.09375 1.265625q1.078125 0 1.859375 -0.9375q0.78125 -0.9375 0.78125 -2.78125q0 -1.890625 -0.75 -2.796875q-0.75 -0.90625 -1.828125 -0.90625q-1.0625 0 -1.859375 0.9375q-0.78125 0.9375 -0.78125 2.703125zm15.516357 1.796875l1.6875 0.203125q-0.40625 1.484375 -1.484375 2.3125q-1.078125 0.8125 -2.765625 0.8125q-2.125 0 -3.375 -1.296875q-1.234375 -1.3125 -1.234375 -3.671875q0 -2.453125 1.25 -3.796875q1.265625 -1.34375 3.265625 -1.34375q1.9375 0 3.15625 1.328125q1.234375 1.3125 1.234375 3.703125q0 0.15625 0 0.4375l-7.21875 0q0.09375 1.59375 0.90625 2.453125q0.8125 0.84375 2.015625 0.84375q0.90625 0 1.546875 -0.46875q0.640625 -0.484375 1.015625 -1.515625zm-5.390625 -2.65625l5.40625 0q-0.109375 -1.21875 -0.625 -1.828125q-0.78125 -0.953125 -2.03125 -0.953125q-1.125 0 -1.90625 0.765625q-0.765625 0.75 -0.84375 2.015625zm20.63713 4.578125q-0.92185974 0.765625 -1.7656097 1.09375q-0.828125 0.3125 -1.796875 0.3125q-1.59375 0 -2.453125 -0.78125q-0.859375 -0.78125 -0.859375 -1.984375q0 -0.71875 0.328125 -1.296875q0.328125 -0.59375 0.84375 -0.9375q0.53125 -0.359375 1.1875 -0.546875q0.46875 -0.125 1.453125 -0.25q1.984375 -0.234375 2.9218597 -0.5625q0.015625 -0.34375 0.015625 -0.421875q0 -1.0 -0.46873474 -1.421875q-0.625 -0.546875 -1.875 -0.546875q-1.15625 0 -1.703125 0.40625q-0.546875 0.40625 -0.8125 1.421875l-1.609375 -0.21875q0.21875 -1.015625 0.71875 -1.640625q0.5 -0.640625 1.453125 -0.984375q0.953125 -0.34375 2.1875 -0.34375q1.25 0 2.0156097 0.296875q0.78125 0.28125 1.140625 0.734375q0.375 0.4375 0.515625 1.109375q0.078125 0.421875 0.078125 1.515625l0 2.1875q0 2.28125 0.109375 2.890625q0.109375 0.59375 0.40625 1.15625l-1.703125 0q-0.265625 -0.515625 -0.328125 -1.1875zm-0.140625 -3.671875q-0.89060974 0.375 -2.6718597 0.625q-1.015625 0.140625 -1.4375 0.328125q-0.421875 0.1875 -0.65625 0.53125q-0.21875 0.34375 -0.21875 0.78125q0 0.65625 0.5 1.09375q0.5 0.4375 1.453125 0.4375q0.9375 0 1.671875 -0.40625q0.75 -0.421875 1.0937347 -1.140625q0.265625 -0.5625 0.265625 -1.640625l0 -0.609375zm4.156967 4.859375l0 -13.359375l1.640625 0l0 13.359375l-1.640625 0zm4.191696 -11.46875l0 -1.890625l1.640625 0l0 1.890625l-1.640625 0zm0 11.46875l0 -9.671875l1.640625 0l0 9.671875l-1.640625 0zm3.8323212 0.796875l1.59375 0.234375q0.109375 0.75 0.5625 1.078125q0.609375 0.453125 1.671875 0.453125q1.140625 0 1.75 -0.453125q0.625 -0.453125 0.84375 -1.265625q0.125 -0.5 0.109375 -2.109375q-1.0625 1.265625 -2.671875 1.265625q-2.0 0 -3.09375 -1.4375q-1.09375 -1.4375 -1.09375 -3.453125q0 -1.390625 0.5 -2.5625q0.515625 -1.171875 1.453125 -1.796875q0.953125 -0.640625 2.25 -0.640625q1.703125 0 2.8125 1.375l0 -1.15625l1.515625 0l0 8.359375q0 2.265625 -0.46875 3.203125q-0.453125 0.9375 -1.453125 1.484375q-0.984375 0.546875 -2.453125 0.546875q-1.71875 0 -2.796875 -0.78125q-1.0625 -0.765625 -1.03125 -2.34375zm1.359375 -5.8125q0 1.90625 0.75 2.78125q0.765625 0.875 1.90625 0.875q1.125 0 1.890625 -0.859375q0.765625 -0.875 0.765625 -2.734375q0 -1.78125 -0.796875 -2.671875q-0.78125 -0.90625 -1.890625 -0.90625q-1.09375 0 -1.859375 0.890625q-0.765625 0.875 -0.765625 2.625zm9.328842 5.015625l0 -9.671875l1.46875 0l0 1.375q1.0625 -1.59375 3.078125 -1.59375q0.875 0 1.609375 0.3125q0.734375 0.3125 1.09375 0.828125q0.375 0.5 0.515625 1.203125q0.09375 0.453125 0.09375 1.59375l0 5.953125l-1.640625 0l0 -5.890625q0 -1.0 -0.203125 -1.484375q-0.1875 -0.5 -0.671875 -0.796875q-0.484375 -0.296875 -1.140625 -0.296875q-1.046875 0 -1.8125 0.671875q-0.75 0.65625 -0.75 2.515625l0 5.28125l-1.640625 0zm17.000717 -3.109375l1.6875 0.203125q-0.40625 1.484375 -1.484375 2.3125q-1.078125 0.8125 -2.765625 0.8125q-2.125 0 -3.375 -1.296875q-1.234375 -1.3125 -1.234375 -3.671875q0 -2.453125 1.25 -3.796875q1.265625 -1.34375 3.265625 -1.34375q1.9375 0 3.15625 1.328125q1.234375 1.3125 1.234375 3.703125q0 0.15625 0 0.4375l-7.21875 0q0.09375 1.59375 0.90625 2.453125q0.8125 0.84375 2.015625 0.84375q0.90625 0 1.546875 -0.46875q0.640625 -0.484375 1.015625 -1.515625zm-5.390625 -2.65625l5.40625 0q-0.109375 -1.21875 -0.625 -1.828125q-0.78125 -0.953125 -2.03125 -0.953125q-1.125 0 -1.90625 0.765625q-0.765625 0.75 -0.84375 2.015625zm15.406967 5.765625l0 -1.21875q-0.90625 1.4375 -2.703125 1.4375q-1.15625 0 -2.125 -0.640625q-0.96875 -0.640625 -1.5 -1.78125q-0.53125 -1.140625 -0.53125 -2.625q0 -1.453125 0.484375 -2.625q0.484375 -1.1875 1.4375 -1.8125q0.96875 -0.625 2.171875 -0.625q0.875 0 1.546875 0.375q0.6875 0.359375 1.109375 0.953125l0 -4.796875l1.640625 0l0 13.359375l-1.53125 0zm-5.171875 -4.828125q0 1.859375 0.78125 2.78125q0.78125 0.921875 1.84375 0.921875q1.078125 0 1.828125 -0.875q0.75 -0.890625 0.75 -2.6875q0 -1.984375 -0.765625 -2.90625q-0.765625 -0.9375 -1.890625 -0.9375q-1.078125 0 -1.8125 0.890625q-0.734375 0.890625 -0.734375 2.8125zm18.043396 3.359375l0.234375 1.453125q-0.6875 0.140625 -1.234375 0.140625q-0.890625 0 -1.390625 -0.28125q-0.484375 -0.28125 -0.6875 -0.734375q-0.203125 -0.46875 -0.203125 -1.9375l0 -5.578125l-1.203125 0l0 -1.265625l1.203125 0l0 -2.390625l1.625 -0.984375l0 3.375l1.65625 0l0 1.265625l-1.65625 0l0 5.671875q0 0.6875 0.078125 0.890625q0.09375 0.203125 0.28125 0.328125q0.203125 0.109375 0.578125 0.109375q0.265625 0 0.71875 -0.0625zm0.99580383 -3.375q0 -2.6875 1.484375 -3.96875q1.25 -1.078125 3.046875 -1.078125q2.0 0 3.265625 1.3125q1.265625 1.296875 1.265625 3.609375q0 1.859375 -0.5625 2.9375q-0.5625 1.0625 -1.640625 1.65625q-1.0625 0.59375 -2.328125 0.59375q-2.03125 0 -3.28125 -1.296875q-1.25 -1.3125 -1.25 -3.765625zm1.6875 0q0 1.859375 0.796875 2.796875q0.8125 0.921875 2.046875 0.921875q1.21875 0 2.03125 -0.921875q0.8125 -0.9375 0.8125 -2.84375q0 -1.796875 -0.8125 -2.71875q-0.8125 -0.921875 -2.03125 -0.921875q-1.234375 0 -2.046875 0.921875q-0.796875 0.90625 -0.796875 2.765625zm15.980896 4.84375l-1.515625 0l0 -13.359375l1.640625 0l0 4.765625q1.046875 -1.296875 2.65625 -1.296875q0.890625 0 1.6875 0.359375q0.796875 0.359375 1.3125 1.015625q0.515625 0.640625 0.796875 1.5625q0.296875 0.921875 0.296875 1.96875q0 2.484375 -1.234375 3.84375q-1.21875 1.359375 -2.953125 1.359375q-1.703125 0 -2.6875 -1.4375l0 1.21875zm-0.015625 -4.90625q0 1.734375 0.484375 2.515625q0.765625 1.265625 2.09375 1.265625q1.078125 0 1.859375 -0.9375q0.78125 -0.9375 0.78125 -2.78125q0 -1.890625 -0.75 -2.796875q-0.75 -0.90625 -1.828125 -0.90625q-1.0625 0 -1.859375 0.9375q-0.78125 0.9375 -0.78125 2.703125zm8.281967 0.0625q0 -2.6875 1.484375 -3.96875q1.25 -1.078125 3.046875 -1.078125q2.0 0 3.265625 1.3125q1.265625 1.296875 1.265625 3.609375q0 1.859375 -0.5625 2.9375q-0.5625 1.0625 -1.640625 1.65625q-1.0625 0.59375 -2.328125 0.59375q-2.03125 0 -3.28125 -1.296875q-1.25 -1.3125 -1.25 -3.765625zm1.6875 0q0 1.859375 0.796875 2.796875q0.8125 0.921875 2.046875 0.921875q1.21875 0 2.03125 -0.921875q0.8125 -0.9375 0.8125 -2.84375q0 -1.796875 -0.8125 -2.71875q-0.8125 -0.921875 -2.03125 -0.921875q-1.234375 0 -2.046875 0.921875q-0.796875 0.90625 -0.796875 2.765625zm12.875717 3.375l0.234375 1.453125q-0.6875 0.140625 -1.234375 0.140625q-0.890625 0 -1.390625 -0.28125q-0.484375 -0.28125 -0.6875 -0.734375q-0.203125 -0.46875 -0.203125 -1.9375l0 -5.578125l-1.203125 0l0 -1.265625l1.203125 0l0 -2.390625l1.625 -0.984375l0 3.375l1.65625 0l0 1.265625l-1.65625 0l0 5.671875q0 0.6875 0.078125 0.890625q0.09375 0.203125 0.28125 0.328125q0.203125 0.109375 0.578125 0.109375q0.265625 0 0.71875 -0.0625zm5.183304 0l0.234375 1.453125q-0.6875 0.140625 -1.234375 0.140625q-0.890625 0 -1.390625 -0.28125q-0.484375 -0.28125 -0.6875 -0.734375q-0.203125 -0.46875 -0.203125 -1.9375l0 -5.578125l-1.203125 0l0 -1.265625l1.203125 0l0 -2.390625l1.625 -0.984375l0 3.375l1.65625 0l0 1.265625l-1.65625 0l0 5.671875q0 0.6875 0.078125 0.890625q0.09375 0.203125 0.28125 0.328125q0.203125 0.109375 0.578125 0.109375q0.265625 0 0.71875 -0.0625zm0.99580383 -3.375q0 -2.6875 1.484375 -3.96875q1.25 -1.078125 3.046875 -1.078125q2.0 0 3.265625 1.3125q1.265625 1.296875 1.265625 3.609375q0 1.859375 -0.5625 2.9375q-0.5625 1.0625 -1.640625 1.65625q-1.0625 0.59375 -2.328125 0.59375q-2.03125 0 -3.28125 -1.296875q-1.25 -1.3125 -1.25 -3.765625zm1.6875 0q0 1.859375 0.796875 2.796875q0.8125 0.921875 2.046875 0.921875q1.21875 0 2.03125 -0.921875q0.8125 -0.9375 0.8125 -2.84375q0 -1.796875 -0.8125 -2.71875q-0.8125 -0.921875 -2.03125 -0.921875q-1.234375 0 -2.046875 0.921875q-0.796875 0.90625 -0.796875 2.765625zm9.297592 4.84375l0 -9.671875l1.46875 0l0 1.359375q0.453125 -0.71875 1.203125 -1.140625q0.765625 -0.4375 1.71875 -0.4375q1.0781097 0 1.7656097 0.453125q0.6875 0.4375 0.96875 1.234375q1.15625 -1.6875 2.984375 -1.6875q1.453125 0 2.21875 0.796875q0.78125 0.796875 0.78125 2.453125l0 6.640625l-1.640625 0l0 -6.09375q0 -0.984375 -0.15625 -1.40625q-0.15625 -0.4375 -0.578125 -0.703125q-0.421875 -0.265625 -0.984375 -0.265625q-1.015625 0 -1.6875 0.6875q-0.671875 0.671875 -0.671875 2.15625l0 5.625l-1.640625 0l0 -6.28125q0 -1.09375 -0.40625 -1.640625q-0.40623474 -0.546875 -1.3124847 -0.546875q-0.6875 0 -1.28125 0.359375q-0.59375 0.359375 -0.859375 1.0625q-0.25 0.703125 -0.25 2.03125l0 5.015625l-1.640625 0zm27.036606 -1.1875q-0.921875 0.765625 -1.765625 1.09375q-0.828125 0.3125 -1.796875 0.3125q-1.59375 0 -2.453125 -0.78125q-0.859375 -0.78125 -0.859375 -1.984375q0 -0.71875 0.328125 -1.296875q0.328125 -0.59375 0.84375 -0.9375q0.53125 -0.359375 1.1875 -0.546875q0.46875 -0.125 1.453125 -0.25q1.984375 -0.234375 2.921875 -0.5625q0.015625 -0.34375 0.015625 -0.421875q0 -1.0 -0.46875 -1.421875q-0.625 -0.546875 -1.875 -0.546875q-1.15625 0 -1.703125 0.40625q-0.546875 0.40625 -0.8125 1.421875l-1.609375 -0.21875q0.21875 -1.015625 0.71875 -1.640625q0.5 -0.640625 1.453125 -0.984375q0.953125 -0.34375 2.1875 -0.34375q1.25 0 2.015625 0.296875q0.78125 0.28125 1.140625 0.734375q0.375 0.4375 0.515625 1.109375q0.078125 0.421875 0.078125 1.515625l0 2.1875q0 2.28125 0.109375 2.890625q0.109375 0.59375 0.40625 1.15625l-1.703125 0q-0.265625 -0.515625 -0.328125 -1.1875zm-0.140625 -3.671875q-0.890625 0.375 -2.671875 0.625q-1.015625 0.140625 -1.4375 0.328125q-0.421875 0.1875 -0.65625 0.53125q-0.21875 0.34375 -0.21875 0.78125q0 0.65625 0.5 1.09375q0.5 0.4375 1.453125 0.4375q0.9375 0 1.671875 -0.40625q0.75 -0.421875 1.09375 -1.140625q0.265625 -0.5625 0.265625 -1.640625l0 -0.609375zm4.2038574 4.859375l0 -9.671875l1.46875 0l0 1.375q1.0625 -1.59375 3.078125 -1.59375q0.875 0 1.609375 0.3125q0.734375 0.3125 1.09375 0.828125q0.375 0.5 0.515625 1.203125q0.09375 0.453125 0.09375 1.59375l0 5.953125l-1.640625 0l0 -5.890625q0 -1.0 -0.203125 -1.484375q-0.1875 -0.5 -0.671875 -0.796875q-0.484375 -0.296875 -1.140625 -0.296875q-1.046875 0 -1.8125 0.671875q-0.75 0.65625 -0.75 2.515625l0 5.28125l-1.640625 0zm16.641357 0l0 -1.21875q-0.90625 1.4375 -2.703125 1.4375q-1.15625 0 -2.125 -0.640625q-0.96875 -0.640625 -1.5 -1.78125q-0.53125 -1.140625 -0.53125 -2.625q0 -1.453125 0.484375 -2.625q0.484375 -1.1875 1.4375 -1.8125q0.96875 -0.625 2.171875 -0.625q0.875 0 1.546875 0.375q0.6875 0.359375 1.109375 0.953125l0 -4.796875l1.640625 0l0 13.359375l-1.53125 0zm-5.171875 -4.828125q0 1.859375 0.78125 2.78125q0.78125 0.921875 1.84375 0.921875q1.078125 0 1.828125 -0.875q0.75 -0.890625 0.75 -2.6875q0 -1.984375 -0.765625 -2.90625q-0.765625 -0.9375 -1.890625 -0.9375q-1.078125 0 -1.8125 0.890625q-0.734375 0.890625 -0.734375 2.8125zm18.043396 3.359375l0.234375 1.453125q-0.6875 0.140625 -1.234375 0.140625q-0.890625 0 -1.390625 -0.28125q-0.484375 -0.28125 -0.6875 -0.734375q-0.203125 -0.46875 -0.203125 -1.9375l0 -5.578125l-1.203125 0l0 -1.265625l1.203125 0l0 -2.390625l1.625 -0.984375l0 3.375l1.65625 0l0 1.265625l-1.65625 0l0 5.671875q0 0.6875 0.078125 0.890625q0.09375 0.203125 0.28125 0.328125q0.203125 0.109375 0.578125 0.109375q0.265625 0 0.71875 -0.0625zm1.6051636 1.46875l0 -13.359375l1.640625 0l0 4.796875q1.140625 -1.328125 2.890625 -1.328125q1.078125 0 1.859375 0.421875q0.796875 0.421875 1.140625 1.171875q0.34375 0.75 0.34375 2.171875l0 6.125l-1.640625 0l0 -6.125q0 -1.234375 -0.53125 -1.796875q-0.53125 -0.5625 -1.515625 -0.5625q-0.71875 0 -1.359375 0.390625q-0.640625 0.375 -0.921875 1.015625q-0.265625 0.640625 -0.265625 1.78125l0 5.296875l-1.640625 0zm17.000732 -3.109375l1.6875 0.203125q-0.40625 1.484375 -1.484375 2.3125q-1.078125 0.8125 -2.765625 0.8125q-2.125 0 -3.375 -1.296875q-1.234375 -1.3125 -1.234375 -3.671875q0 -2.453125 1.25 -3.796875q1.265625 -1.34375 3.265625 -1.34375q1.9375 0 3.15625 1.328125q1.234375 1.3125 1.234375 3.703125q0 0.15625 0 0.4375l-7.21875 0q0.09375 1.59375 0.90625 2.453125q0.8125 0.84375 2.015625 0.84375q0.90625 0 1.546875 -0.46875q0.640625 -0.484375 1.015625 -1.515625zm-5.390625 -2.65625l5.40625 0q-0.109375 -1.21875 -0.625 -1.828125q-0.78125 -0.953125 -2.03125 -0.953125q-1.125 0 -1.90625 0.765625q-0.765625 0.75 -0.84375 2.015625z" fill-rule="nonzero"/><path fill="#000000" d="m-375.42188 77.287636l1.625 -0.25q0.125 0.96875 0.75 1.5q0.625 0.515625 1.75 0.515625q1.125 0 1.671875 -0.453125q0.546875 -0.46875 0.546875 -1.09375q0 -0.546875 -0.484375 -0.875q-0.328125 -0.21875 -1.671875 -0.546875q-1.8125 -0.46875 -2.515625 -0.796875q-0.6875 -0.328125 -1.046875 -0.90625q-0.359375 -0.59375 -0.359375 -1.3125q0 -0.640625 0.296875 -1.1875q0.296875 -0.5625 0.8125 -0.921875q0.375 -0.28125 1.03125 -0.46875q0.671875 -0.203125 1.421875 -0.203125q1.140625 0 2.0 0.328125q0.859375 0.328125 1.265625 0.890625q0.421875 0.5625 0.578125 1.5l-1.609375 0.21875q-0.109375 -0.75 -0.640625 -1.171875q-0.515625 -0.421875 -1.46875 -0.421875q-1.140625 0 -1.625 0.375q-0.46875 0.375 -0.46875 0.875q0 0.3125 0.1875 0.578125q0.203125 0.265625 0.640625 0.4375q0.234375 0.09375 1.4375 0.421875q1.75 0.453125 2.4375 0.75q0.6875 0.296875 1.078125 0.859375q0.390625 0.5625 0.390625 1.40625q0 0.828125 -0.484375 1.546875q-0.46875 0.71875 -1.375 1.125q-0.90625 0.390625 -2.046875 0.390625q-1.875 0 -2.875 -0.78125q-0.984375 -0.78125 -1.25 -2.328125zm9.984375 6.59375l0 -13.375l1.484375 0l0 1.25q0.53125 -0.734375 1.1875 -1.09375q0.671875 -0.375 1.625 -0.375q1.234375 0 2.171875 0.640625q0.953125 0.625 1.4375 1.796875q0.484375 1.15625 0.484375 2.546875q0 1.484375 -0.53125 2.671875q-0.53125 1.1875 -1.546875 1.828125q-1.015625 0.625 -2.140625 0.625q-0.8125 0 -1.46875 -0.34375q-0.65625 -0.34375 -1.0625 -0.875l0 4.703125l-1.640625 0zm1.484375 -8.484375q0 1.859375 0.75 2.765625q0.765625 0.890625 1.828125 0.890625q1.09375 0 1.875 -0.921875q0.78125 -0.9375 0.78125 -2.875q0 -1.84375 -0.765625 -2.765625q-0.75 -0.921875 -1.8125 -0.921875q-1.046875 0 -1.859375 0.984375q-0.796875 0.96875 -0.796875 2.84375zm8.891357 4.78125l0 -13.359375l1.640625 0l0 4.796875q1.140625 -1.328125 2.890625 -1.328125q1.078125 0 1.859375 0.421875q0.796875 0.421875 1.140625 1.171875q0.34375 0.75 0.34375 2.171875l0 6.125l-1.640625 0l0 -6.125q0 -1.234375 -0.53125 -1.796875q-0.53125 -0.5625 -1.515625 -0.5625q-0.71875 0 -1.359375 0.390625q-0.640625 0.375 -0.921875 1.015625q-0.265625 0.640625 -0.265625 1.78125l0 5.296875l-1.640625 0zm17.000702 -3.109375l1.6875 0.203125q-0.40625 1.484375 -1.484375 2.3125q-1.078125 0.8125 -2.765625 0.8125q-2.125 0 -3.375 -1.296875q-1.234375 -1.3125 -1.234375 -3.671875q0 -2.453125 1.25 -3.796875q1.265625 -1.34375 3.265625 -1.34375q1.9375 0 3.15625 1.328125q1.234375 1.3125 1.234375 3.703125q0 0.15625 0 0.4375l-7.21875 0q0.09375 1.59375 0.90625 2.453125q0.8125 0.84375 2.015625 0.84375q0.90625 0 1.546875 -0.46875q0.640625 -0.484375 1.015625 -1.515625zm-5.390625 -2.65625l5.40625 0q-0.109375 -1.21875 -0.625 -1.828125q-0.78125 -0.953125 -2.03125 -0.953125q-1.125 0 -1.90625 0.765625q-0.765625 0.75 -0.84375 2.015625zm9.125702 5.765625l0 -9.671875l1.46875 0l0 1.46875q0.5625 -1.03125 1.03125 -1.359375q0.484375 -0.328125 1.0625 -0.328125q0.828125 0 1.6875 0.53125l-0.5625 1.515625q-0.609375 -0.359375 -1.203125 -0.359375q-0.546875 0 -0.96875 0.328125q-0.421875 0.328125 -0.609375 0.890625q-0.28125 0.875 -0.28125 1.921875l0 5.0625l-1.625 0zm12.8533325 -3.109375l1.6875 0.203125q-0.40625 1.484375 -1.484375 2.3125q-1.078125 0.8125 -2.765625 0.8125q-2.125 0 -3.375 -1.296875q-1.234375 -1.3125 -1.234375 -3.671875q0 -2.453125 1.25 -3.796875q1.265625 -1.34375 3.265625 -1.34375q1.9375 0 3.15625 1.328125q1.234375 1.3125 1.234375 3.703125q0 0.15625 0 0.4375l-7.21875 0q0.09375 1.59375 0.90625 2.453125q0.8125 0.84375 2.015625 0.84375q0.90625 0 1.546875 -0.46875q0.640625 -0.484375 1.015625 -1.515625zm-5.390625 -2.65625l5.40625 0q-0.109375 -1.21875 -0.625 -1.828125q-0.78125 -0.953125 -2.03125 -0.953125q-1.125 0 -1.90625 0.765625q-0.765625 0.75 -0.84375 2.015625zm14.324646 5.765625l0 -13.359375l1.640625 0l0 4.796875q1.140625 -1.328125 2.890625 -1.328125q1.078125 0 1.859375 0.421875q0.796875 0.421875 1.140625 1.171875q0.34375 0.75 0.34375 2.171875l0 6.125l-1.640625 0l0 -6.125q0 -1.234375 -0.53125 -1.796875q-0.53125 -0.5625 -1.515625 -0.5625q-0.71875 0 -1.359375 0.390625q-0.640625 0.375 -0.921875 1.015625q-0.265625 0.640625 -0.265625 1.78125l0 5.296875l-1.640625 0zm16.688202 -1.1875q-0.921875 0.765625 -1.765625 1.09375q-0.828125 0.3125 -1.796875 0.3125q-1.59375 0 -2.453125 -0.78125q-0.859375 -0.78125 -0.859375 -1.984375q0 -0.71875 0.328125 -1.296875q0.328125 -0.59375 0.84375 -0.9375q0.53125 -0.359375 1.1875 -0.546875q0.46875 -0.125 1.453125 -0.25q1.984375 -0.234375 2.921875 -0.5625q0.015625 -0.34375 0.015625 -0.421875q0 -1.0 -0.46875 -1.421875q-0.625 -0.546875 -1.875 -0.546875q-1.15625 0 -1.703125 0.40625q-0.546875 0.40625 -0.8125 1.421875l-1.609375 -0.21875q0.21875 -1.015625 0.71875 -1.640625q0.5 -0.640625 1.453125 -0.984375q0.953125 -0.34375 2.1875 -0.34375q1.25 0 2.015625 0.296875q0.78125 0.28125 1.140625 0.734375q0.375 0.4375 0.515625 1.109375q0.078125 0.421875 0.078125 1.515625l0 2.1875q0 2.28125 0.109375 2.890625q0.109375 0.59375 0.40625 1.15625l-1.703125 0q-0.265625 -0.515625 -0.328125 -1.1875zm-0.140625 -3.671875q-0.890625 0.375 -2.671875 0.625q-1.015625 0.140625 -1.4375 0.328125q-0.421875 0.1875 -0.65625 0.53125q-0.21875 0.34375 -0.21875 0.78125q0 0.65625 0.5 1.09375q0.5 0.4375 1.453125 0.4375q0.9375 0 1.671875 -0.40625q0.75 -0.421875 1.09375 -1.140625q0.265625 -0.5625 0.265625 -1.640625l0 -0.609375zm3.547577 1.96875l1.625 -0.25q0.125 0.96875 0.75 1.5q0.625 0.515625 1.75 0.515625q1.125 0 1.671875 -0.453125q0.546875 -0.46875 0.546875 -1.09375q0 -0.546875 -0.484375 -0.875q-0.328125 -0.21875 -1.671875 -0.546875q-1.8125 -0.46875 -2.515625 -0.796875q-0.6875 -0.328125 -1.046875 -0.90625q-0.359375 -0.59375 -0.359375 -1.3125q0 -0.640625 0.296875 -1.1875q0.296875 -0.5625 0.8125 -0.921875q0.375 -0.28125 1.03125 -0.46875q0.671875 -0.203125 1.421875 -0.203125q1.140625 0 2.0 0.328125q0.859375 0.328125 1.265625 0.890625q0.421875 0.5625 0.578125 1.5l-1.609375 0.21875q-0.109375 -0.75 -0.640625 -1.171875q-0.515625 -0.421875 -1.46875 -0.421875q-1.140625 0 -1.625 0.375q-0.46875 0.375 -0.46875 0.875q0 0.3125 0.1875 0.578125q0.203125 0.265625 0.640625 0.4375q0.234375 0.09375 1.4375 0.421875q1.75 0.453125 2.4375 0.75q0.6875 0.296875 1.078125 0.859375q0.390625 0.5625 0.390625 1.40625q0 0.828125 -0.484375 1.546875q-0.46875 0.71875 -1.375 1.125q-0.90625 0.390625 -2.046875 0.390625q-1.875 0 -2.875 -0.78125q-0.984375 -0.78125 -1.25 -2.328125zm18.74582 1.421875l0.234375 1.453125q-0.6875 0.140625 -1.234375 0.140625q-0.890625 0 -1.390625 -0.28125q-0.484375 -0.28125 -0.6875 -0.734375q-0.203125 -0.46875 -0.203125 -1.9375l0 -5.578125l-1.203125 0l0 -1.265625l1.203125 0l0 -2.390625l1.625 -0.984375l0 3.375l1.65625 0l0 1.265625l-1.65625 0l0 5.671875q0 0.6875 0.078125 0.890625q0.09375 0.203125 0.28125 0.328125q0.203125 0.109375 0.578125 0.109375q0.265625 0 0.71875 -0.0625zm0.9958191 -3.375q0 -2.6875 1.484375 -3.96875q1.25 -1.078125 3.046875 -1.078125q2.0 0 3.265625 1.3125q1.265625 1.296875 1.265625 3.609375q0 1.859375 -0.5625 2.9375q-0.5625 1.0625 -1.640625 1.65625q-1.0625 0.59375 -2.328125 0.59375q-2.03125 0 -3.28125 -1.296875q-1.25 -1.3125 -1.25 -3.765625zm1.6875 0q0 1.859375 0.796875 2.796875q0.8125 0.921875 2.046875 0.921875q1.21875 0 2.03125 -0.921875q0.8125 -0.9375 0.8125 -2.84375q0 -1.796875 -0.8125 -2.71875q-0.8125 -0.921875 -2.03125 -0.921875q-1.234375 0 -2.046875 0.921875q-0.796875 0.90625 -0.796875 2.765625zm15.980881 4.84375l-1.5156097 0l0 -13.359375l1.6406097 0l0 4.765625q1.046875 -1.296875 2.65625 -1.296875q0.890625 0 1.6875 0.359375q0.796875 0.359375 1.3125 1.015625q0.515625 0.640625 0.796875 1.5625q0.296875 0.921875 0.296875 1.96875q0 2.484375 -1.234375 3.84375q-1.21875 1.359375 -2.953125 1.359375q-1.703125 0 -2.6875 -1.4375l0 1.21875zm-0.015625 -4.90625q0 1.734375 0.484375 2.515625q0.765625 1.265625 2.09375 1.265625q1.078125 0 1.859375 -0.9375q0.78125 -0.9375 0.78125 -2.78125q0 -1.890625 -0.75 -2.796875q-0.75 -0.90625 -1.828125 -0.90625q-1.0625 0 -1.859375 0.9375q-0.78125 0.9375 -0.78125 2.703125zm15.516342 1.796875l1.6875 0.203125q-0.40625 1.484375 -1.484375 2.3125q-1.078125 0.8125 -2.765625 0.8125q-2.125 0 -3.375 -1.296875q-1.234375 -1.3125 -1.234375 -3.671875q0 -2.453125 1.25 -3.796875q1.265625 -1.34375 3.265625 -1.34375q1.9375 0 3.15625 1.328125q1.234375 1.3125 1.234375 3.703125q0 0.15625 0 0.4375l-7.21875 0q0.09375 1.59375 0.90625 2.453125q0.8125 0.84375 2.015625 0.84375q0.90625 0 1.546875 -0.46875q0.640625 -0.484375 1.015625 -1.515625zm-5.390625 -2.65625l5.40625 0q-0.109375 -1.21875 -0.625 -1.828125q-0.78125 -0.953125 -2.03125 -0.953125q-1.125 0 -1.90625 0.765625q-0.765625 0.75 -0.84375 2.015625zm20.949646 2.65625l1.6875 0.203125q-0.40625 1.484375 -1.484375 2.3125q-1.078125 0.8125 -2.765625 0.8125q-2.125 0 -3.375 -1.296875q-1.234375 -1.3125 -1.234375 -3.671875q0 -2.453125 1.25 -3.796875q1.265625 -1.34375 3.265625 -1.34375q1.9375 0 3.15625 1.328125q1.234375 1.3125 1.234375 3.703125q0 0.15625 0 0.4375l-7.21875 0q0.09375 1.59375 0.90625 2.453125q0.8125 0.84375 2.015625 0.84375q0.90625 0 1.546875 -0.46875q0.640625 -0.484375 1.015625 -1.515625zm-5.390625 -2.65625l5.40625 0q-0.109375 -1.21875 -0.625 -1.828125q-0.78125 -0.953125 -2.03125 -0.953125q-1.125 0 -1.90625 0.765625q-0.765625 0.75 -0.84375 2.015625zm8.047592 5.765625l3.53125 -5.03125l-3.265625 -4.640625l2.046875 0l1.484375 2.265625q0.421875 0.640625 0.671875 1.078125q0.40625 -0.59375 0.734375 -1.0625l1.640625 -2.28125l1.953125 0l-3.34375 4.546875l3.59375 5.125l-2.015625 0l-1.984375 -3.0l-0.515625 -0.8125l-2.546875 3.8125l-1.984375 0zm16.734375 -1.1875q-0.921875 0.765625 -1.765625 1.09375q-0.828125 0.3125 -1.796875 0.3125q-1.59375 0 -2.453125 -0.78125q-0.859375 -0.78125 -0.859375 -1.984375q0 -0.71875 0.328125 -1.296875q0.328125 -0.59375 0.84375 -0.9375q0.53125 -0.359375 1.1875 -0.546875q0.46875 -0.125 1.453125 -0.25q1.984375 -0.234375 2.921875 -0.5625q0.015625 -0.34375 0.015625 -0.421875q0 -1.0 -0.46875 -1.421875q-0.625 -0.546875 -1.875 -0.546875q-1.15625 0 -1.703125 0.40625q-0.546875 0.40625 -0.8125 1.421875l-1.609375 -0.21875q0.21875 -1.015625 0.71875 -1.640625q0.5 -0.640625 1.453125 -0.984375q0.953125 -0.34375 2.1875 -0.34375q1.25 0 2.015625 0.296875q0.78125 0.28125 1.140625 0.734375q0.375 0.4375 0.515625 1.109375q0.078125 0.421875 0.078125 1.515625l0 2.1875q0 2.28125 0.109375 2.890625q0.109375 0.59375 0.40625 1.15625l-1.703125 0q-0.265625 -0.515625 -0.328125 -1.1875zm-0.140625 -3.671875q-0.890625 0.375 -2.671875 0.625q-1.015625 0.140625 -1.4375 0.328125q-0.421875 0.1875 -0.65625 0.53125q-0.21875 0.34375 -0.21875 0.78125q0 0.65625 0.5 1.09375q0.5 0.4375 1.453125 0.4375q0.9375 0 1.671875 -0.40625q0.75 -0.421875 1.09375 -1.140625q0.265625 -0.5625 0.265625 -1.640625l0 -0.609375zm10.516342 1.3125l1.609375 0.21875q-0.265625 1.65625 -1.359375 2.609375q-1.078125 0.9375 -2.671875 0.9375q-1.984375 0 -3.1875 -1.296875q-1.203125 -1.296875 -1.203125 -3.71875q0 -1.578125 0.515625 -2.75q0.515625 -1.171875 1.578125 -1.75q1.0625 -0.59375 2.3125 -0.59375q1.578125 0 2.578125 0.796875q1.0 0.796875 1.28125 2.265625l-1.59375 0.234375q-0.234375 -0.96875 -0.8125 -1.453125q-0.578125 -0.5 -1.390625 -0.5q-1.234375 0 -2.015625 0.890625q-0.78125 0.890625 -0.78125 2.8125q0 1.953125 0.75 2.84375q0.75 0.875 1.953125 0.875q0.96875 0 1.609375 -0.59375q0.65625 -0.59375 0.828125 -1.828125zm6.59375 2.078125l0.234375 1.453125q-0.6875 0.140625 -1.234375 0.140625q-0.890625 0 -1.390625 -0.28125q-0.484375 -0.28125 -0.6875 -0.734375q-0.203125 -0.46875 -0.203125 -1.9375l0 -5.578125l-1.203125 0l0 -1.265625l1.203125 0l0 -2.390625l1.625 -0.984375l0 3.375l1.65625 0l0 1.265625l-1.65625 0l0 5.671875q0 0.6875 0.078125 0.890625q0.09375 0.203125 0.28125 0.328125q0.203125 0.109375 0.578125 0.109375q0.265625 0 0.71875 -0.0625zm1.5583038 1.46875l0 -13.359375l1.640625 0l0 13.359375l-1.640625 0zm4.113571 3.71875l-0.1875 -1.53125q0.546875 0.140625 0.9375 0.140625q0.546875 0 0.875 -0.1875q0.328125 -0.171875 0.546875 -0.5q0.15625 -0.25 0.5 -1.21875q0.046875 -0.140625 0.140625 -0.40625l-3.671875 -9.6875l1.765625 0l2.015625 5.59375q0.390625 1.078125 0.703125 2.25q0.28125 -1.125 0.671875 -2.203125l2.078125 -5.640625l1.640625 0l-3.6875 9.828125q-0.59375 1.609375 -0.921875 2.203125q-0.4375 0.8125 -1.0 1.1875q-0.5625 0.375 -1.34375 0.375q-0.484375 0 -1.0625 -0.203125zm14.589554 -15.1875l0 -1.890625l1.640625 0l0 1.890625l-1.640625 0zm0 11.46875l0 -9.671875l1.640625 0l0 9.671875l-1.640625 0zm4.144821 0l0 -9.671875l1.46875 0l0 1.375q1.0625 -1.59375 3.078125 -1.59375q0.875 0 1.609375 0.3125q0.734375 0.3125 1.09375 0.828125q0.375 0.5 0.515625 1.203125q0.09375 0.453125 0.09375 1.59375l0 5.953125l-1.640625 0l0 -5.890625q0 -1.0 -0.203125 -1.484375q-0.1875 -0.5 -0.671875 -0.796875q-0.484375 -0.296875 -1.140625 -0.296875q-1.046875 0 -1.8125 0.671875q-0.75 0.65625 -0.75 2.515625l0 5.28125l-1.640625 0zm19.137146 -1.46875l0.234375 1.453125q-0.6875 0.140625 -1.234375 0.140625q-0.890625 0 -1.390625 -0.28125q-0.484375 -0.28125 -0.6875 -0.734375q-0.203125 -0.46875 -0.203125 -1.9375l0 -5.578125l-1.203125 0l0 -1.265625l1.203125 0l0 -2.390625l1.625 -0.984375l0 3.375l1.65625 0l0 1.265625l-1.65625 0l0 5.671875q0 0.6875 0.078125 0.890625q0.09375 0.203125 0.28125 0.328125q0.203125 0.109375 0.578125 0.109375q0.265625 0 0.71875 -0.0625zm1.6051788 1.46875l0 -13.359375l1.640625 0l0 4.796875q1.140625 -1.328125 2.890625 -1.328125q1.078125 0 1.859375 0.421875q0.796875 0.421875 1.140625 1.171875q0.34375 0.75 0.34375 2.171875l0 6.125l-1.640625 0l0 -6.125q0 -1.234375 -0.53125 -1.796875q-0.53125 -0.5625 -1.515625 -0.5625q-0.71875 0 -1.359375 0.390625q-0.640625 0.375 -0.921875 1.015625q-0.265625 0.640625 -0.265625 1.78125l0 5.296875l-1.640625 0zm17.000717 -3.109375l1.6875 0.203125q-0.40625 1.484375 -1.484375 2.3125q-1.078125 0.8125 -2.765625 0.8125q-2.125 0 -3.375 -1.296875q-1.234375 -1.3125 -1.234375 -3.671875q0 -2.453125 1.25 -3.796875q1.265625 -1.34375 3.265625 -1.34375q1.9375 0 3.15625 1.328125q1.234375 1.3125 1.234375 3.703125q0 0.15625 0 0.4375l-7.21875 0q0.09375 1.59375 0.90625 2.453125q0.8125 0.84375 2.015625 0.84375q0.90625 0 1.546875 -0.46875q0.640625 -0.484375 1.015625 -1.515625zm-5.390625 -2.65625l5.40625 0q-0.109375 -1.21875 -0.625 -1.828125q-0.78125 -0.953125 -2.03125 -0.953125q-1.125 0 -1.90625 0.765625q-0.765625 0.75 -0.84375 2.015625zm20.637146 2.21875l1.609375 0.21875q-0.265625 1.65625 -1.359375 2.609375q-1.078125 0.9375 -2.671875 0.9375q-1.984375 0 -3.1875 -1.296875q-1.203125 -1.296875 -1.203125 -3.71875q0 -1.578125 0.515625 -2.75q0.515625 -1.171875 1.578125 -1.75q1.0625 -0.59375 2.3125 -0.59375q1.578125 0 2.578125 0.796875q1.0 0.796875 1.28125 2.265625l-1.59375 0.234375q-0.234375 -0.96875 -0.8125 -1.453125q-0.578125 -0.5 -1.390625 -0.5q-1.234375 0 -2.015625 0.890625q-0.78125 0.890625 -0.78125 2.8125q0 1.953125 0.75 2.84375q0.75 0.875 1.953125 0.875q0.96875 0 1.609375 -0.59375q0.65625 -0.59375 0.828125 -1.828125zm9.640625 0.4375l1.6875 0.203125q-0.40625 1.484375 -1.484375 2.3125q-1.078125 0.8125 -2.765625 0.8125q-2.125 0 -3.375 -1.296875q-1.234375 -1.3125 -1.234375 -3.671875q0 -2.453125 1.25 -3.796875q1.265625 -1.34375 3.265625 -1.34375q1.9375 0 3.15625 1.328125q1.234375 1.3125 1.234375 3.703125q0 0.15625 0 0.4375l-7.21875 0q0.09375 1.59375 0.90625 2.453125q0.8125 0.84375 2.015625 0.84375q0.90625 0 1.546875 -0.46875q0.640625 -0.484375 1.015625 -1.515625zm-5.390625 -2.65625l5.40625 0q-0.109375 -1.21875 -0.625 -1.828125q-0.78125 -0.953125 -2.03125 -0.953125q-1.125 0 -1.90625 0.765625q-0.765625 0.75 -0.84375 2.015625zm9.141357 5.765625l0 -9.671875l1.46875 0l0 1.375q1.0625 -1.59375 3.078125 -1.59375q0.875 0 1.609375 0.3125q0.734375 0.3125 1.09375 0.828125q0.375 0.5 0.515625 1.203125q0.09375 0.453125 0.09375 1.59375l0 5.953125l-1.640625 0l0 -5.890625q0 -1.0 -0.203125 -1.484375q-0.1875 -0.5 -0.671875 -0.796875q-0.484375 -0.296875 -1.140625 -0.296875q-1.046875 0 -1.8125 0.671875q-0.75 0.65625 -0.75 2.515625l0 5.28125l-1.640625 0zm13.953857 -1.46875l0.234375 1.453125q-0.6875 0.140625 -1.234375 0.140625q-0.890625 0 -1.390625 -0.28125q-0.484375 -0.28125 -0.6875 -0.734375q-0.203125 -0.46875 -0.203125 -1.9375l0 -5.578125l-1.203125 0l0 -1.265625l1.203125 0l0 -2.390625l1.625 -0.984375l0 3.375l1.65625 0l0 1.265625l-1.65625 0l0 5.671875q0 0.6875 0.078125 0.890625q0.09375 0.203125 0.28125 0.328125q0.203125 0.109375 0.578125 0.109375q0.265625 0 0.71875 -0.0625zm8.230164 -1.640625l1.6875 0.203125q-0.40625 1.484375 -1.484375 2.3125q-1.078125 0.8125 -2.765625 0.8125q-2.125 0 -3.375 -1.296875q-1.234375 -1.3125 -1.234375 -3.671875q0 -2.453125 1.25 -3.796875q1.265625 -1.34375 3.265625 -1.34375q1.9375 0 3.15625 1.328125q1.234375 1.3125 1.234375 3.703125q0 0.15625 0 0.4375l-7.21875 0q0.09375 1.59375 0.90625 2.453125q0.8125 0.84375 2.015625 0.84375q0.90625 0 1.546875 -0.46875q0.640625 -0.484375 1.015625 -1.515625zm-5.390625 -2.65625l5.40625 0q-0.109375 -1.21875 -0.625 -1.828125q-0.78125 -0.953125 -2.03125 -0.953125q-1.125 0 -1.90625 0.765625q-0.765625 0.75 -0.84375 2.015625zm9.125732 5.765625l0 -9.671875l1.46875 0l0 1.46875q0.5625 -1.03125 1.03125 -1.359375q0.484375 -0.328125 1.0625 -0.328125q0.828125 0 1.6875 0.53125l-0.5625 1.515625q-0.609375 -0.359375 -1.203125 -0.359375q-0.546875 0 -0.96875 0.328125q-0.421875 0.328125 -0.609375 0.890625q-0.28125 0.875 -0.28125 1.921875l0 5.0625l-1.625 0zm5.6514893 0l0 -1.875l1.875 0l0 1.875l-1.875 0z" fill-rule="nonzero"/><path fill="#000000" d="m-374.5625 102.57826l0 -13.359375l4.609375 0q1.546875 0 2.375 0.203125q1.140625 0.25 1.953125 0.953125q1.0625 0.890625 1.578125 2.28125q0.53125 1.390625 0.53125 3.171875q0 1.515625 -0.359375 2.703125q-0.359375 1.171875 -0.921875 1.9375q-0.546875 0.765625 -1.203125 1.21875q-0.65625 0.4375 -1.59375 0.671875q-0.9375 0.21875 -2.140625 0.21875l-4.828125 0zm1.765625 -1.578125l2.859375 0q1.3125 0 2.0625 -0.234375q0.75 -0.25 1.203125 -0.703125q0.625 -0.625 0.96875 -1.6875q0.359375 -1.0625 0.359375 -2.578125q0 -2.09375 -0.6875 -3.21875q-0.6875 -1.125 -1.671875 -1.5q-0.703125 -0.28125 -2.28125 -0.28125l-2.8125 0l0 10.203125zm10.894836 -3.265625q0 -2.6875 1.484375 -3.96875q1.25 -1.078125 3.046875 -1.078125q2.0 0 3.265625 1.3125q1.265625 1.296875 1.265625 3.609375q0 1.859375 -0.5625 2.9375q-0.5625 1.0625 -1.640625 1.65625q-1.0625 0.59375 -2.328125 0.59375q-2.03125 0 -3.28125 -1.296875q-1.25 -1.3125 -1.25 -3.765625zm1.6875 0q0 1.859375 0.796875 2.796875q0.8125 0.921875 2.046875 0.921875q1.21875 0 2.03125 -0.921875q0.8125 -0.9375 0.8125 -2.84375q0 -1.796875 -0.8125 -2.71875q-0.8125 -0.921875 -2.03125 -0.921875q-1.234375 0 -2.046875 0.921875q-0.796875 0.90625 -0.796875 2.765625zm11.078827 4.84375l-2.96875 -9.671875l1.703125 0l1.53125 5.578125l0.578125 2.078125q0.046875 -0.15625 0.5 -2.0l1.546875 -5.65625l1.6875 0l1.4375 5.609375l0.484375 1.84375l0.5625 -1.859375l1.65625 -5.59375l1.59375 0l-3.03125 9.671875l-1.703125 0l-1.53125 -5.796875l-0.375 -1.640625l-1.953125 7.4375l-1.71875 0zm11.691681 0l0 -9.671875l1.46875 0l0 1.375q1.0625 -1.59375 3.078125 -1.59375q0.875 0 1.609375 0.3125q0.734375 0.3125 1.09375 0.828125q0.375 0.5 0.515625 1.203125q0.09375 0.453125 0.09375 1.59375l0 5.953125l-1.640625 0l0 -5.890625q0 -1.0 -0.203125 -1.484375q-0.1875 -0.5 -0.671875 -0.796875q-0.484375 -0.296875 -1.140625 -0.296875q-1.046875 0 -1.8125 0.671875q-0.75 0.65625 -0.75 2.515625l0 5.28125l-1.640625 0zm10.328857 0l0 -13.359375l1.640625 0l0 13.359375l-1.640625 0zm3.5823364 -4.84375q0 -2.6875 1.484375 -3.96875q1.25 -1.078125 3.046875 -1.078125q2.0 0 3.265625 1.3125q1.265625 1.296875 1.265625 3.609375q0 1.859375 -0.5625 2.9375q-0.5625 1.0625 -1.640625 1.65625q-1.0625 0.59375 -2.328125 0.59375q-2.03125 0 -3.28125 -1.296875q-1.25 -1.3125 -1.25 -3.765625zm1.6875 0q0 1.859375 0.796875 2.796875q0.8125 0.921875 2.046875 0.921875q1.21875 0 2.03125 -0.921875q0.8125 -0.9375 0.8125 -2.84375q0 -1.796875 -0.8125 -2.71875q-0.8125 -0.921875 -2.03125 -0.921875q-1.234375 0 -2.046875 0.921875q-0.796875 0.90625 -0.796875 2.765625zm15.610077 3.65625q-0.921875 0.765625 -1.765625 1.09375q-0.828125 0.3125 -1.796875 0.3125q-1.59375 0 -2.453125 -0.78125q-0.859375 -0.78125 -0.859375 -1.984375q0 -0.71875 0.328125 -1.296875q0.328125 -0.59375 0.84375 -0.9375q0.53125 -0.359375 1.1875 -0.546875q0.46875 -0.125 1.453125 -0.25q1.984375 -0.234375 2.921875 -0.5625q0.015625 -0.34375 0.015625 -0.421875q0 -1.0 -0.46875 -1.421875q-0.625 -0.546875 -1.875 -0.546875q-1.15625 0 -1.703125 0.40625q-0.546875 0.40625 -0.8125 1.421875l-1.609375 -0.21875q0.21875 -1.015625 0.71875 -1.640625q0.5 -0.640625 1.453125 -0.984375q0.953125 -0.34375 2.1875 -0.34375q1.25 0 2.015625 0.296875q0.78125 0.28125 1.140625 0.734375q0.375 0.4375 0.515625 1.109375q0.078125 0.421875 0.078125 1.515625l0 2.1875q0 2.28125 0.109375 2.890625q0.109375 0.59375 0.40625 1.15625l-1.703125 0q-0.265625 -0.515625 -0.328125 -1.1875zm-0.140625 -3.671875q-0.890625 0.375 -2.671875 0.625q-1.015625 0.140625 -1.4375 0.328125q-0.421875 0.1875 -0.65625 0.53125q-0.21875 0.34375 -0.21875 0.78125q0 0.65625 0.5 1.09375q0.5 0.4375 1.453125 0.4375q0.9375 0 1.671875 -0.40625q0.75 -0.421875 1.09375 -1.140625q0.265625 -0.5625 0.265625 -1.640625l0 -0.609375zm10.469452 4.859375l0 -1.21875q-0.90625 1.4375 -2.703125 1.4375q-1.15625 0 -2.125 -0.640625q-0.96875 -0.640625 -1.5 -1.78125q-0.53125 -1.140625 -0.53125 -2.625q0 -1.453125 0.484375 -2.625q0.484375 -1.1875 1.4375 -1.8125q0.96875 -0.625 2.171875 -0.625q0.875 0 1.546875 0.375q0.6875 0.359375 1.109375 0.953125l0 -4.796875l1.640625 0l0 13.359375l-1.53125 0zm-5.171875 -4.828125q0 1.859375 0.78125 2.78125q0.78125 0.921875 1.84375 0.921875q1.078125 0 1.828125 -0.875q0.75 -0.890625 0.75 -2.6875q0 -1.984375 -0.765625 -2.90625q-0.765625 -0.9375 -1.890625 -0.9375q-1.078125 0 -1.8125 0.890625q-0.734375 0.890625 -0.734375 2.8125zm20.777771 3.640625q-0.921875 0.765625 -1.765625 1.09375q-0.828125 0.3125 -1.796875 0.3125q-1.59375 0 -2.453125 -0.78125q-0.859375 -0.78125 -0.859375 -1.984375q0 -0.71875 0.328125 -1.296875q0.328125 -0.59375 0.84375 -0.9375q0.53125 -0.359375 1.1875 -0.546875q0.46875 -0.125 1.453125 -0.25q1.984375 -0.234375 2.921875 -0.5625q0.015625 -0.34375 0.015625 -0.421875q0 -1.0 -0.46875 -1.421875q-0.625 -0.546875 -1.875 -0.546875q-1.15625 0 -1.703125 0.40625q-0.546875 0.40625 -0.8125 1.421875l-1.609375 -0.21875q0.21875 -1.015625 0.71875 -1.640625q0.5 -0.640625 1.453125 -0.984375q0.953125 -0.34375 2.1875 -0.34375q1.25 0 2.015625 0.296875q0.78125 0.28125 1.140625 0.734375q0.375 0.4375 0.515625 1.109375q0.078125 0.421875 0.078125 1.515625l0 2.1875q0 2.28125 0.109375 2.890625q0.109375 0.59375 0.40625 1.15625l-1.703125 0q-0.265625 -0.515625 -0.328125 -1.1875zm-0.140625 -3.671875q-0.890625 0.375 -2.671875 0.625q-1.015625 0.140625 -1.4375 0.328125q-0.421875 0.1875 -0.65625 0.53125q-0.21875 0.34375 -0.21875 0.78125q0 0.65625 0.5 1.09375q0.5 0.4375 1.453125 0.4375q0.9375 0 1.671875 -0.40625q0.75 -0.421875 1.09375 -1.140625q0.265625 -0.5625 0.265625 -1.640625l0 -0.609375zm3.5476074 1.96875l1.625 -0.25q0.125 0.96875 0.75 1.5q0.625 0.515625 1.75 0.515625q1.125 0 1.671875 -0.453125q0.546875 -0.46875 0.546875 -1.09375q0 -0.546875 -0.484375 -0.875q-0.328125 -0.21875 -1.671875 -0.546875q-1.8125 -0.46875 -2.515625 -0.796875q-0.6875 -0.328125 -1.046875 -0.90625q-0.359375 -0.59375 -0.359375 -1.3125q0 -0.640625 0.296875 -1.1875q0.296875 -0.5625 0.8125 -0.921875q0.375 -0.28125 1.03125 -0.46875q0.671875 -0.203125 1.421875 -0.203125q1.140625 0 2.0 0.328125q0.859375 0.328125 1.265625 0.890625q0.421875 0.5625 0.578125 1.5l-1.609375 0.21875q-0.109375 -0.75 -0.640625 -1.171875q-0.515625 -0.421875 -1.46875 -0.421875q-1.140625 0 -1.625 0.375q-0.46875 0.375 -0.46875 0.875q0 0.3125 0.1875 0.578125q0.203125 0.265625 0.640625 0.4375q0.234375 0.09375 1.4375 0.421875q1.75 0.453125 2.4375 0.75q0.6875 0.296875 1.078125 0.859375q0.390625 0.5625 0.390625 1.40625q0 0.828125 -0.484375 1.546875q-0.46875 0.71875 -1.375 1.125q-0.90625 0.390625 -2.046875 0.390625q-1.875 0 -2.875 -0.78125q-0.984375 -0.78125 -1.25 -2.328125zm14.511414 0l1.625 -0.25q0.125 0.96875 0.75 1.5q0.625 0.515625 1.75 0.515625q1.125 0 1.671875 -0.453125q0.546875 -0.46875 0.546875 -1.09375q0 -0.546875 -0.484375 -0.875q-0.328125 -0.21875 -1.671875 -0.546875q-1.8125 -0.46875 -2.515625 -0.796875q-0.6875 -0.328125 -1.046875 -0.90625q-0.359375 -0.59375 -0.359375 -1.3125q0 -0.640625 0.296875 -1.1875q0.296875 -0.5625 0.8125 -0.921875q0.375 -0.28125 1.03125 -0.46875q0.671875 -0.203125 1.421875 -0.203125q1.140625 0 2.0 0.328125q0.85939026 0.328125 1.2656403 0.890625q0.421875 0.5625 0.578125 1.5l-1.6093903 0.21875q-0.109375 -0.75 -0.640625 -1.171875q-0.515625 -0.421875 -1.46875 -0.421875q-1.140625 0 -1.625 0.375q-0.46875 0.375 -0.46875 0.875q0 0.3125 0.1875 0.578125q0.203125 0.265625 0.640625 0.4375q0.234375 0.09375 1.4375 0.421875q1.75 0.453125 2.4375153 0.75q0.6875 0.296875 1.078125 0.859375q0.390625 0.5625 0.390625 1.40625q0 0.828125 -0.484375 1.546875q-0.46875 0.71875 -1.3750153 1.125q-0.90625 0.390625 -2.046875 0.390625q-1.875 0 -2.875 -0.78125q-0.984375 -0.78125 -1.25 -2.328125zm12.67189 2.890625l-3.6875 -9.671875l1.734375 0l2.078125 5.796875q0.328125 0.9375 0.625 1.9375q0.203125 -0.765625 0.609375 -1.828125l2.140625 -5.90625l1.6875 0l-3.65625 9.671875l-1.53125 0zm6.328125 0.796875l1.59375 0.234375q0.109375 0.75 0.5625 1.078125q0.609375 0.453125 1.671875 0.453125q1.140625 0 1.75 -0.453125q0.625 -0.453125 0.84375 -1.265625q0.125 -0.5 0.109375 -2.109375q-1.0625 1.265625 -2.671875 1.265625q-2.0 0 -3.09375 -1.4375q-1.09375 -1.4375 -1.09375 -3.453125q0 -1.390625 0.5 -2.5625q0.515625 -1.171875 1.453125 -1.796875q0.953125 -0.640625 2.25 -0.640625q1.703125 0 2.8125 1.375l0 -1.15625l1.515625 0l0 8.359375q0 2.265625 -0.46875 3.203125q-0.453125 0.9375 -1.453125 1.484375q-0.984375 0.546875 -2.453125 0.546875q-1.71875 0 -2.796875 -0.78125q-1.0625 -0.765625 -1.03125 -2.34375zm1.359375 -5.8125q0 1.90625 0.75 2.78125q0.765625 0.875 1.90625 0.875q1.125 0 1.890625 -0.859375q0.765625 -0.875 0.765625 -2.734375q0 -1.78125 -0.796875 -2.671875q-0.78125 -0.90625 -1.890625 -0.90625q-1.09375 0 -1.859375 0.890625q-0.765625 0.875 -0.765625 2.625zm20.824646 3.828125q-0.921875 0.765625 -1.765625 1.09375q-0.828125 0.3125 -1.796875 0.3125q-1.59375 0 -2.453125 -0.78125q-0.859375 -0.78125 -0.859375 -1.984375q0 -0.71875 0.328125 -1.296875q0.328125 -0.59375 0.84375 -0.9375q0.53125 -0.359375 1.1875 -0.546875q0.46875 -0.125 1.453125 -0.25q1.984375 -0.234375 2.921875 -0.5625q0.015625 -0.34375 0.015625 -0.421875q0 -1.0 -0.46875 -1.421875q-0.625 -0.546875 -1.875 -0.546875q-1.15625 0 -1.703125 0.40625q-0.546875 0.40625 -0.8125 1.421875l-1.609375 -0.21875q0.21875 -1.015625 0.71875 -1.640625q0.5 -0.640625 1.453125 -0.984375q0.953125 -0.34375 2.1875 -0.34375q1.25 0 2.015625 0.296875q0.78125 0.28125 1.140625 0.734375q0.375 0.4375 0.515625 1.109375q0.078125 0.421875 0.078125 1.515625l0 2.1875q0 2.28125 0.109375 2.890625q0.109375 0.59375 0.40625 1.15625l-1.703125 0q-0.265625 -0.515625 -0.328125 -1.1875zm-0.140625 -3.671875q-0.890625 0.375 -2.671875 0.625q-1.015625 0.140625 -1.4375 0.328125q-0.421875 0.1875 -0.65625 0.53125q-0.21875 0.34375 -0.21875 0.78125q0 0.65625 0.5 1.09375q0.5 0.4375 1.453125 0.4375q0.9375 0 1.671875 -0.40625q0.75 -0.421875 1.09375 -1.140625q0.265625 -0.5625 0.265625 -1.640625l0 -0.609375zm4.203842 4.859375l0 -9.671875l1.46875 0l0 1.375q1.0625 -1.59375 3.078125 -1.59375q0.875 0 1.609375 0.3125q0.734375 0.3125 1.09375 0.828125q0.375 0.5 0.515625 1.203125q0.09375 0.453125 0.09375 1.59375l0 5.953125l-1.640625 0l0 -5.890625q0 -1.0 -0.203125 -1.484375q-0.1875 -0.5 -0.671875 -0.796875q-0.484375 -0.296875 -1.140625 -0.296875q-1.046875 0 -1.8125 0.671875q-0.75 0.65625 -0.75 2.515625l0 5.28125l-1.640625 0zm16.641342 0l0 -1.21875q-0.90625 1.4375 -2.703125 1.4375q-1.15625 0 -2.125 -0.640625q-0.96875 -0.640625 -1.5 -1.78125q-0.53125 -1.140625 -0.53125 -2.625q0 -1.453125 0.484375 -2.625q0.484375 -1.1875 1.4375 -1.8125q0.96875 -0.625 2.171875 -0.625q0.875 0 1.546875 0.375q0.6875 0.359375 1.109375 0.953125l0 -4.796875l1.640625 0l0 13.359375l-1.53125 0zm-5.171875 -4.828125q0 1.859375 0.78125 2.78125q0.78125 0.921875 1.84375 0.921875q1.078125 0 1.828125 -0.875q0.75 -0.890625 0.75 -2.6875q0 -1.984375 -0.765625 -2.90625q-0.765625 -0.9375 -1.890625 -0.9375q-1.078125 0 -1.8125 0.890625q-0.734375 0.890625 -0.734375 2.8125zm14.652771 4.828125l0 -13.359375l1.8125 0l7.015625 10.484375l0 -10.484375l1.6875 0l0 13.359375l-1.8125 0l-7.015625 -10.5l0 10.5l-1.6875 0zm12.019821 0l5.125 -13.359375l1.90625 0l5.46875 13.359375l-2.015625 0l-1.546875 -4.046875l-5.59375 0l-1.46875 4.046875l-1.875 0zm3.859375 -5.484375l4.53125 0l-1.40625 -3.703125q-0.625 -1.6875 -0.9375 -2.765625q-0.265625 1.28125 -0.71875 2.546875l-1.46875 3.921875zm10.006073 5.484375l0 -13.359375l2.65625 0l3.15625 9.453125q0.4375 1.328125 0.640625 1.984375q0.234375 -0.734375 0.703125 -2.140625l3.203125 -9.296875l2.375 0l0 13.359375l-1.703125 0l0 -11.171875l-3.875 11.171875l-1.59375 0l-3.859375 -11.375l0 11.375l-1.703125 0zm15.618927 0l0 -13.359375l9.65625 0l0 1.578125l-7.875 0l0 4.09375l7.375 0l0 1.5625l-7.375 0l0 4.546875l8.1875 0l0 1.578125l-9.96875 0zm17.892502 0l0 -13.359375l1.765625 0l0 13.359375l-1.765625 0zm8.261429 -1.46875l0.234375 1.453125q-0.6875 0.140625 -1.234375 0.140625q-0.890625 0 -1.390625 -0.28125q-0.484375 -0.28125 -0.6875 -0.734375q-0.203125 -0.46875 -0.203125 -1.9375l0 -5.578125l-1.203125 0l0 -1.265625l1.203125 0l0 -2.390625l1.625 -0.984375l0 3.375l1.65625 0l0 1.265625l-1.65625 0l0 5.671875q0 0.6875 0.078125 0.890625q0.09375 0.203125 0.28125 0.328125q0.203125 0.109375 0.578125 0.109375q0.265625 0 0.71875 -0.0625z" fill-rule="nonzero"/><path fill="#000000" d="m-374.73438 128.68138l0 -17.062492l3.609375 0l0 1.359375l-1.96875 0l0 14.34375l1.96875 0l0 1.3593674l-3.609375 0zm4.4957886 -6.5937424l1.625 -0.25q0.125 0.96875 0.75 1.5q0.625 0.515625 1.75 0.515625q1.125 0 1.671875 -0.453125q0.546875 -0.46875 0.546875 -1.09375q0 -0.546875 -0.484375 -0.875q-0.328125 -0.21875 -1.671875 -0.546875q-1.8125 -0.46875 -2.515625 -0.796875q-0.6875 -0.328125 -1.046875 -0.90625q-0.359375 -0.59375 -0.359375 -1.3125q0 -0.640625 0.296875 -1.1875q0.296875 -0.5625 0.8125 -0.921875q0.375 -0.28125 1.03125 -0.46875q0.671875 -0.203125 1.421875 -0.203125q1.140625 0 2.0 0.328125q0.859375 0.328125 1.265625 0.890625q0.421875 0.5625 0.578125 1.5l-1.609375 0.21875q-0.109375 -0.75 -0.640625 -1.171875q-0.515625 -0.421875 -1.46875 -0.421875q-1.140625 0 -1.625 0.375q-0.46875 0.375 -0.46875 0.875q0 0.3125 0.1875 0.578125q0.203125 0.265625 0.640625 0.4375q0.234375 0.09375 1.4375 0.421875q1.75 0.453125 2.4375 0.75q0.6875 0.296875 1.078125 0.859375q0.390625 0.5625 0.390625 1.40625q0 0.828125 -0.484375 1.546875q-0.46875 0.71875 -1.375 1.125q-0.90625 0.390625 -2.046875 0.390625q-1.875 0 -2.875 -0.78125q-0.984375 -0.78125 -1.25 -2.328125zm9.984375 2.890625l0 -13.359375l1.640625 0l0 7.625l3.890625 -3.9375l2.109375 0l-3.6875 3.59375l4.0625 6.078125l-2.015625 0l-3.203125 -4.953125l-1.15625 1.125l0 3.828125l-1.640625 0zm9.328125 -11.46875l0 -1.890625l1.640625 0l0 1.890625l-1.640625 0zm0 11.46875l0 -9.671875l1.640625 0l0 9.671875l-1.640625 0zm4.1448364 0l0 -9.671875l1.46875 0l0 1.375q1.0625 -1.59375 3.078125 -1.59375q0.875 0 1.609375 0.3125q0.734375 0.3125 1.09375 0.828125q0.375 0.5 0.515625 1.203125q0.09375 0.453125 0.09375 1.59375l0 5.953125l-1.640625 0l0 -5.890625q0 -1.0 -0.203125 -1.484375q-0.1875 -0.5 -0.671875 -0.796875q-0.484375 -0.296875 -1.140625 -0.296875q-1.046875 0 -1.8125 0.671875q-0.75 0.65625 -0.75 2.515625l0 5.28125l-1.640625 0zm10.375732 0l0 -9.671875l1.46875 0l0 1.375q1.0625 -1.59375 3.078125 -1.59375q0.875 0 1.609375 0.3125q0.734375 0.3125 1.09375 0.828125q0.375 0.5 0.515625 1.203125q0.09375 0.453125 0.09375 1.59375l0 5.953125l-1.640625 0l0 -5.890625q0 -1.0 -0.203125 -1.484375q-0.1875 -0.5 -0.671875 -0.796875q-0.484375 -0.296875 -1.140625 -0.296875q-1.046875 0 -1.8125 0.671875q-0.75 0.65625 -0.75 2.515625l0 5.28125l-1.640625 0zm16.688202 -1.1875q-0.921875 0.765625 -1.765625 1.09375q-0.828125 0.3125 -1.796875 0.3125q-1.59375 0 -2.453125 -0.78125q-0.859375 -0.78125 -0.859375 -1.984375q0 -0.71875 0.328125 -1.296875q0.328125 -0.59375 0.84375 -0.9375q0.53125 -0.359375 1.1875 -0.546875q0.46875 -0.125 1.453125 -0.25q1.984375 -0.234375 2.921875 -0.5625q0.015625 -0.34375 0.015625 -0.421875q0 -1.0 -0.46875 -1.421875q-0.625 -0.546875 -1.875 -0.546875q-1.15625 0 -1.703125 0.40625q-0.546875 0.40625 -0.8125 1.421875l-1.609375 -0.21875q0.21875 -1.015625 0.71875 -1.640625q0.5 -0.640625 1.453125 -0.984375q0.953125 -0.34375 2.1875 -0.34375q1.25 0 2.015625 0.296875q0.78125 0.28125 1.140625 0.734375q0.375 0.4375 0.515625 1.109375q0.078125 0.421875 0.078125 1.515625l0 2.1875q0 2.28125 0.109375 2.890625q0.109375 0.59375 0.40625 1.15625l-1.703125 0q-0.265625 -0.515625 -0.328125 -1.1875zm-0.140625 -3.671875q-0.890625 0.375 -2.671875 0.625q-1.015625 0.140625 -1.4375 0.328125q-0.421875 0.1875 -0.65625 0.53125q-0.21875 0.34375 -0.21875 0.78125q0 0.65625 0.5 1.09375q0.5 0.4375 1.453125 0.4375q0.9375 0 1.671875 -0.40625q0.75 -0.421875 1.09375 -1.140625q0.265625 -0.5625 0.265625 -1.640625l0 -0.609375zm4.203827 4.859375l0 -9.671875l1.46875 0l0 1.359375q0.453125 -0.71875 1.203125 -1.140625q0.765625 -0.4375 1.71875 -0.4375q1.078125 0 1.765625 0.453125q0.6875 0.4375 0.96875 1.234375q1.15625 -1.6875 2.984375 -1.6875q1.453125 0 2.21875 0.796875q0.78125 0.796875 0.78125 2.453125l0 6.640625l-1.640625 0l0 -6.09375q0 -0.984375 -0.15625 -1.40625q-0.15625 -0.4375 -0.578125 -0.703125q-0.421875 -0.265625 -0.984375 -0.265625q-1.015625 0 -1.6875 0.6875q-0.671875 0.671875 -0.671875 2.15625l0 5.625l-1.640625 0l0 -6.28125q0 -1.09375 -0.40625 -1.640625q-0.40625 -0.546875 -1.3125 -0.546875q-0.6875 0 -1.28125 0.359375q-0.59375 0.359375 -0.859375 1.0625q-0.25 0.703125 -0.25 2.03125l0 5.015625l-1.640625 0zm22.165833 -3.109375l1.6875 0.203125q-0.40625 1.484375 -1.484375 2.3125q-1.078125 0.8125 -2.765625 0.8125q-2.125 0 -3.375 -1.296875q-1.234375 -1.3125 -1.234375 -3.671875q0 -2.453125 1.25 -3.796875q1.265625 -1.34375 3.265625 -1.34375q1.9375 0 3.15625 1.328125q1.234375 1.3125 1.234375 3.703125q0 0.15625 0 0.4375l-7.21875 0q0.09375 1.59375 0.90625 2.453125q0.8125 0.84375 2.015625 0.84375q0.90625 0 1.546875 -0.46875q0.640625 -0.484375 1.015625 -1.515625zm-5.390625 -2.65625l5.40625 0q-0.109375 -1.21875 -0.625 -1.828125q-0.78125 -0.953125 -2.03125 -0.953125q-1.125 0 -1.90625 0.765625q-0.765625 0.75 -0.84375 2.015625zm11.875702 9.468742l-3.609375 0l0 -1.3593674l1.96875 0l0 -14.34375l-1.96875 0l0 -1.359375l3.609375 0l0 17.062492zm2.902069 -3.7031174l0 -1.875l1.875 0l0 1.875l-1.875 0zm4.0739136 -2.890625l1.625 -0.25q0.125 0.96875 0.75 1.5q0.625 0.515625 1.75 0.515625q1.125 0 1.671875 -0.453125q0.546875 -0.46875 0.546875 -1.09375q0 -0.546875 -0.484375 -0.875q-0.328125 -0.21875 -1.671875 -0.546875q-1.8125 -0.46875 -2.515625 -0.796875q-0.6875 -0.328125 -1.046875 -0.90625q-0.359375 -0.59375 -0.359375 -1.3125q0 -0.640625 0.296875 -1.1875q0.296875 -0.5625 0.8125 -0.921875q0.375 -0.28125 1.03125 -0.46875q0.671875 -0.203125 1.421875 -0.203125q1.140625 0 2.0 0.328125q0.859375 0.328125 1.265625 0.890625q0.421875 0.5625 0.578125 1.5l-1.609375 0.21875q-0.109375 -0.75 -0.640625 -1.171875q-0.515625 -0.421875 -1.46875 -0.421875q-1.140625 0 -1.625 0.375q-0.46875 0.375 -0.46875 0.875q0 0.3125 0.1875 0.578125q0.203125 0.265625 0.640625 0.4375q0.234375 0.09375 1.4375 0.421875q1.75 0.453125 2.4375 0.75q0.6875 0.296875 1.078125 0.859375q0.390625 0.5625 0.390625 1.40625q0 0.828125 -0.484375 1.546875q-0.46875 0.71875 -1.375 1.125q-0.90625 0.390625 -2.046875 0.390625q-1.875 0 -2.875 -0.78125q-0.984375 -0.78125 -1.25 -2.328125zm12.671875 2.890625l-3.6875 -9.671875l1.734375 0l2.078125 5.796875q0.328125 0.9375 0.625 1.9375q0.203125 -0.765625 0.609375 -1.828125l2.140625 -5.90625l1.6875 0l-3.65625 9.671875l-1.53125 0zm6.328125 0.796875l1.59375 0.234375q0.109375 0.75 0.5625 1.078125q0.609375 0.453125 1.671875 0.453125q1.140625 0 1.75 -0.453125q0.625 -0.453125 0.84375 -1.265625q0.125 -0.5 0.109375 -2.109375q-1.0625 1.265625 -2.671875 1.265625q-2.0 0 -3.09375 -1.4375q-1.09375 -1.4375 -1.09375 -3.453125q0 -1.390625 0.5 -2.5625q0.515625 -1.171875 1.453125 -1.796875q0.953125 -0.640625 2.25 -0.640625q1.703125 0 2.8125 1.375l0 -1.15625l1.515625 0l0 8.359375q0 2.265625 -0.46875 3.203125q-0.453125 0.9375 -1.453125 1.4843674q-0.984375 0.546875 -2.453125 0.546875q-1.71875 0 -2.796875 -0.78125q-1.0625 -0.7656174 -1.03125 -2.3437424zm1.359375 -5.8125q0 1.90625 0.75 2.78125q0.765625 0.875 1.90625 0.875q1.125 0 1.890625 -0.859375q0.765625 -0.875 0.765625 -2.734375q0 -1.78125 -0.796875 -2.671875q-0.78125 -0.90625 -1.890625 -0.90625q-1.09375 0 -1.859375 0.890625q-0.765625 0.875 -0.765625 2.625zm14.699646 5.015625l0 -13.359375l1.8125 0l7.015625 10.484375l0 -10.484375l1.6875 0l0 13.359375l-1.8125 0l-7.015625 -10.5l0 10.5l-1.6875 0zm12.957321 -6.5q0 -3.328125 1.78125 -5.203125q1.78125 -1.890625 4.609375 -1.890625q1.84375 0 3.328125 0.890625q1.484375 0.875 2.265625 2.46875q0.78125 1.578125 0.78125 3.578125q0 2.03125 -0.828125 3.640625q-0.8125 1.59375 -2.3125 2.421875q-1.5 0.828125 -3.25 0.828125q-1.875 0 -3.359375 -0.90625q-1.484375 -0.921875 -2.25 -2.5q-0.765625 -1.578125 -0.765625 -3.328125zm1.8125 0.015625q0 2.421875 1.296875 3.8125q1.296875 1.390625 3.265625 1.390625q2.0 0 3.28125 -1.40625q1.28125 -1.40625 1.28125 -3.984375q0 -1.625 -0.546875 -2.84375q-0.546875 -1.21875 -1.609375 -1.875q-1.0625 -0.671875 -2.375 -0.671875q-1.890625 0 -3.25 1.296875q-1.34375 1.28125 -1.34375 4.28125zm21.482498 6.484375l0 -11.78125l-4.40625 0l0 -1.578125l10.578125 0l0 1.578125l-4.40625 0l0 11.78125l-1.765625 0zm11.755356 0l0 -5.65625l-5.15625 -7.703125l2.15625 0l2.640625 4.03125q0.71875 1.125 1.34375 2.265625q0.609375 -1.046875 1.46875 -2.359375l2.578125 -3.9375l2.0625 0l-5.328125 7.703125l0 5.65625l-1.765625 0zm8.677948 0l0 -13.359375l5.046875 0q1.328125 0 2.03125 0.125q0.96875 0.171875 1.640625 0.640625q0.671875 0.453125 1.078125 1.28125q0.40625 0.828125 0.40625 1.828125q0 1.703125 -1.09375 2.890625q-1.078125 1.171875 -3.921875 1.171875l-3.421875 0l0 5.421875l-1.765625 0zm1.765625 -7.0l3.453125 0q1.71875 0 2.4375 -0.640625q0.71875 -0.640625 0.71875 -1.796875q0 -0.84375 -0.421875 -1.4375q-0.421875 -0.59375 -1.125 -0.78125q-0.4375 -0.125 -1.640625 -0.125l-3.421875 0l0 4.78125zm10.146698 0.5q0 -3.328125 1.78125 -5.203125q1.78125 -1.890625 4.609375 -1.890625q1.84375 0 3.328125 0.890625q1.484375 0.875 2.265625 2.46875q0.78125 1.578125 0.78125 3.578125q0 2.03125 -0.828125 3.640625q-0.8125 1.59375 -2.3125 2.421875q-1.5 0.828125 -3.25 0.828125q-1.875 0 -3.359375 -0.90625q-1.484375 -0.921875 -2.25 -2.5q-0.765625 -1.578125 -0.765625 -3.328125zm1.8125 0.015625q0 2.421875 1.296875 3.8125q1.296875 1.390625 3.265625 1.390625q2.0 0 3.28125 -1.40625q1.28125 -1.40625 1.28125 -3.984375q0 -1.625 -0.546875 -2.84375q-0.546875 -1.21875 -1.609375 -1.875q-1.0625 -0.671875 -2.375 -0.671875q-1.890625 0 -3.25 1.296875q-1.34375 1.28125 -1.34375 4.28125zm12.636429 2.1875l1.65625 -0.140625q0.125 1.0 0.546875 1.640625q0.4375 0.640625 1.34375 1.046875q0.921875 0.390625 2.0625 0.390625q1.0 0 1.78125 -0.296875q0.78125 -0.296875 1.15625 -0.8125q0.375 -0.53125 0.375 -1.15625q0 -0.625 -0.375 -1.09375q-0.359375 -0.46875 -1.1875 -0.796875q-0.546875 -0.203125 -2.390625 -0.640625q-1.828125 -0.453125 -2.5625 -0.84375q-0.96875 -0.5 -1.4375 -1.234375q-0.46875 -0.75 -0.46875 -1.671875q0 -1.0 0.578125 -1.875q0.578125 -0.890625 1.671875 -1.34375q1.109375 -0.453125 2.453125 -0.453125q1.484375 0 2.609375 0.484375q1.140625 0.46875 1.75 1.40625q0.609375 0.921875 0.65625 2.09375l-1.6875 0.125q-0.140625 -1.265625 -0.9375 -1.90625q-0.78125 -0.65625 -2.3125 -0.65625q-1.609375 0 -2.34375 0.59375q-0.734375 0.59375 -0.734375 1.421875q0 0.71875 0.53125 1.171875q0.5 0.46875 2.65625 0.96875q2.15625 0.484375 2.953125 0.84375q1.171875 0.53125 1.71875 1.359375q0.5625 0.828125 0.5625 1.90625q0 1.0625 -0.609375 2.015625q-0.609375 0.9375 -1.75 1.46875q-1.140625 0.515625 -2.578125 0.515625q-1.8125 0 -3.046875 -0.53125q-1.21875 -0.53125 -1.921875 -1.59375q-0.6875 -1.0625 -0.71875 -2.40625zm15.721924 4.296875l5.125 -13.359375l1.90625 0l5.46875 13.359375l-2.015625 0l-1.546875 -4.046875l-5.59375 0l-1.46875 4.046875l-1.875 0zm3.859375 -5.484375l4.53125 0l-1.40625 -3.703125q-0.625 -1.6875 -0.9375 -2.765625q-0.265625 1.28125 -0.71875 2.546875l-1.46875 3.921875zm9.974823 5.484375l0 -13.359375l1.78125 0l0 11.78125l6.5625 0l0 1.578125l-8.34375 0zm10.375702 0l0 -13.359375l1.78125 0l0 11.78125l6.5625 0l0 1.578125l-8.34375 0z" fill-rule="nonzero"/><path fill="#000000" d="m-374.64062 147.37825l0 -13.359375l1.78125 0l0 11.78125l6.5625 0l0 1.578125l-8.34375 0zm9.922607 -6.5q0 -3.328125 1.78125 -5.203125q1.78125 -1.890625 4.609375 -1.890625q1.84375 0 3.328125 0.890625q1.484375 0.875 2.265625 2.46875q0.78125 1.578125 0.78125 3.578125q0 2.03125 -0.828125 3.640625q-0.8125 1.59375 -2.3125 2.421875q-1.5 0.828125 -3.25 0.828125q-1.875 0 -3.359375 -0.90625q-1.484375 -0.921875 -2.25 -2.5q-0.765625 -1.578125 -0.765625 -3.328125zm1.8125 0.015625q0 2.421875 1.296875 3.8125q1.296875 1.390625 3.265625 1.390625q2.0 0 3.28125 -1.40625q1.28125 -1.40625 1.28125 -3.984375q0 -1.625 -0.546875 -2.84375q-0.546875 -1.21875 -1.609375 -1.875q-1.0625 -0.671875 -2.375 -0.671875q-1.890625 0 -3.25 1.296875q-1.34375 1.28125 -1.34375 4.28125zm15.558289 6.484375l-3.53125 -13.359375l1.8125 0l2.03125 8.765625q0.328125 1.375 0.5625 2.71875q0.5 -2.140625 0.59375 -2.46875l2.546875 -9.015625l2.125 0l1.921875 6.765625q0.71875 2.515625 1.03125 4.71875q0.265625 -1.265625 0.671875 -2.890625l2.09375 -8.59375l1.78125 0l-3.671875 13.359375l-1.703125 0l-2.8125 -10.171875q-0.359375 -1.28125 -0.421875 -1.5625q-0.203125 0.90625 -0.390625 1.5625l-2.828125 10.171875l-1.8125 0zm15.311768 0l0 -13.359375l9.65625 0l0 1.578125l-7.875 0l0 4.09375l7.375 0l0 1.5625l-7.375 0l0 4.546875l8.1875 0l0 1.578125l-9.96875 0zm12.4436035 0l0 -13.359375l5.921875 0q1.78125 0 2.703125 0.359375q0.9375 0.359375 1.484375 1.28125q0.5625 0.90625 0.5625 2.015625q0 1.40625 -0.921875 2.390625q-0.921875 0.96875 -2.84375 1.234375q0.703125 0.34375 1.078125 0.671875q0.765625 0.703125 1.453125 1.765625l2.328125 3.640625l-2.21875 0l-1.765625 -2.78125q-0.78125 -1.203125 -1.28125 -1.828125q-0.5 -0.640625 -0.90625 -0.890625q-0.390625 -0.265625 -0.796875 -0.359375q-0.296875 -0.078125 -0.984375 -0.078125l-2.046875 0l0 5.9375l-1.765625 0zm1.765625 -7.453125l3.796875 0q1.21875 0 1.890625 -0.25q0.6875 -0.265625 1.046875 -0.8125q0.359375 -0.546875 0.359375 -1.1875q0 -0.953125 -0.6875 -1.5625q-0.6875 -0.609375 -2.1875 -0.609375l-4.21875 0l0 4.421875zm21.207306 2.765625l1.765625 0.453125q-0.5625 2.171875 -2.0 3.328125q-1.4375 1.140625 -3.53125 1.140625q-2.15625 0 -3.515625 -0.875q-1.34375 -0.890625 -2.0625 -2.546875q-0.703125 -1.671875 -0.703125 -3.59375q0 -2.078125 0.796875 -3.625q0.796875 -1.5625 2.265625 -2.359375q1.484375 -0.8125 3.25 -0.8125q2.0 0 3.359375 1.015625q1.375 1.015625 1.90625 2.875l-1.734375 0.40625q-0.46875 -1.453125 -1.359375 -2.109375q-0.875 -0.671875 -2.203125 -0.671875q-1.546875 0 -2.578125 0.734375q-1.03125 0.734375 -1.453125 1.984375q-0.421875 1.234375 -0.421875 2.5625q0 1.703125 0.5 2.96875q0.5 1.265625 1.546875 1.90625q1.046875 0.625 2.265625 0.625q1.484375 0 2.515625 -0.859375q1.03125 -0.859375 1.390625 -2.546875zm2.472931 4.6875l5.125 -13.359375l1.90625 0l5.46875 13.359375l-2.015625 0l-1.546875 -4.046875l-5.59375 0l-1.46875 4.046875l-1.875 0zm3.859375 -5.484375l4.53125 0l-1.40625 -3.703125q-0.625 -1.6875 -0.9375 -2.765625q-0.265625 1.28125 -0.71875 2.546875l-1.46875 3.921875zm9.4592285 1.1875l1.65625 -0.140625q0.125 1.0 0.546875 1.640625q0.4375 0.640625 1.34375 1.046875q0.921875 0.390625 2.0625 0.390625q1.0 0 1.78125 -0.296875q0.78125 -0.296875 1.15625 -0.8125q0.375 -0.53125 0.375 -1.15625q0 -0.625 -0.375 -1.09375q-0.359375 -0.46875 -1.1875 -0.796875q-0.546875 -0.203125 -2.390625 -0.640625q-1.828125 -0.453125 -2.5625 -0.84375q-0.96875 -0.5 -1.4375 -1.234375q-0.46875 -0.75 -0.46875 -1.671875q0 -1.0 0.578125 -1.875q0.578125 -0.890625 1.671875 -1.34375q1.109375 -0.453125 2.453125 -0.453125q1.484375 0 2.609375 0.484375q1.140625 0.46875 1.75 1.40625q0.609375 0.921875 0.65625 2.09375l-1.6875 0.125q-0.140625 -1.265625 -0.9375 -1.90625q-0.78125 -0.65625 -2.3125 -0.65625q-1.609375 0 -2.34375 0.59375q-0.734375 0.59375 -0.734375 1.421875q0 0.71875 0.53125 1.171875q0.5 0.46875 2.65625 0.96875q2.15625 0.484375 2.953125 0.84375q1.171875 0.53125 1.71875 1.359375q0.5625 0.828125 0.5625 1.90625q0 1.0625 -0.609375 2.015625q-0.609375 0.9375 -1.75 1.46875q-1.140625 0.515625 -2.578125 0.515625q-1.8125 0 -3.046875 -0.53125q-1.21875 -0.53125 -1.921875 -1.59375q-0.6875 -1.0625 -0.71875 -2.40625zm13.0685425 4.296875l0 -13.359375l9.65625 0l0 1.578125l-7.875 0l0 4.09375l7.375 0l0 1.5625l-7.375 0l0 4.546875l8.1875 0l0 1.578125l-9.96875 0z" fill-rule="nonzero"/><path fill="#6d9eeb" d="m64.86614 249.96457l0 0c0 -30.449585 24.684265 -55.133865 55.133858 -55.133865l0 0c14.622406 0 28.64592 5.808731 38.98552 16.14833c10.339615 10.339615 16.148346 24.363129 16.148346 38.985535l0 0c0 30.449585 -24.68428 55.13385 -55.133865 55.13385l0 0c-30.449593 0 -55.133858 -24.684265 -55.133858 -55.13385z" fill-rule="evenodd"/><path stroke="#567ebd" stroke-width="8.0" stroke-linejoin="round" stroke-linecap="butt" d="m64.86614 249.96457l0 0c0 -30.449585 24.684265 -55.133865 55.133858 -55.133865l0 0c14.622406 0 28.64592 5.808731 38.98552 16.14833c10.339615 10.339615 16.148346 24.363129 16.148346 38.985535l0 0c0 30.449585 -24.68428 55.13385 -55.133865 55.13385l0 0c-30.449593 0 -55.133858 -24.684265 -55.133858 -55.13385z" fill-rule="evenodd"/><path fill="#000000" d="m105.15222 231.47577l0 0c0 -6.6535034 4.0470657 -12.047241 9.039368 -12.047241l0 0c2.3973923 0 4.696594 1.2692566 6.3918 3.5285645c1.6952133 2.2592926 2.6475754 5.3235474 2.6475754 8.518677l0 0c0 6.6535187 -4.0470657 12.047241 -9.039375 12.047241l0 0c-4.992302 0 -9.039368 -5.3937225 -9.039368 -12.047241z" fill-rule="evenodd"/><path fill="#000000" d="m144.4323 231.47577l0 0c0 -6.6535034 4.047058 -12.047241 9.039368 -12.047241l0 0c2.3973846 0 4.696579 1.2692566 6.3918 3.5285645c1.6952057 2.2592926 2.6475677 5.3235474 2.6475677 8.518677l0 0c0 6.6535187 -4.047058 12.047241 -9.039368 12.047241l0 0c-4.9923096 0 -9.039368 -5.3937225 -9.039368 -12.047241z" fill-rule="evenodd"/><path fill="#ffffff" d="m152.90329 225.44022l0 0c0 -1.6612091 1.4242249 -3.0078735 3.1810913 -3.0078735l0 0c0.84368896 0 1.6528168 0.31689453 2.2493896 0.88098145c0.5965729 0.5640869 0.9317169 1.3291473 0.9317169 2.126892l0 0c0 1.6611938 -1.4242249 3.0078735 -3.1811066 3.0078735l0 0c-1.7568665 0 -3.1810913 -1.3466797 -3.1810913 -3.0078735z" fill-rule="evenodd"/><path fill="#ffffff" d="m114.48651 225.44022l0 0c0 -1.6612091 1.4242325 -3.0078735 3.1811066 -3.0078735l0 0c0.8436737 0 1.6528015 0.31689453 2.2493744 0.88098145c0.5965729 0.5640869 0.93172455 1.3291473 0.93172455 2.126892l0 0c0 1.6611938 -1.4242249 3.0078735 -3.181099 3.0078735l0 0c-1.7568741 0 -3.1811066 -1.3466797 -3.1811066 -3.0078735z" fill-rule="evenodd"/><path fill="#ffffff" fill-opacity="0.1" d="m112.41732 63.292618l0 17.019066l4.813652 6.1339035l2.8083954 4.8496475l6.2204742 -9.10376l1.4041977 -1.3852463l0.099739075 -17.612003z" fill-rule="evenodd"/><path stroke="#ffe2f0" stroke-width="4.0" stroke-linejoin="round" stroke-linecap="butt" d="m112.41732 63.292618l0 17.019066l4.813652 6.1339035l2.8083954 4.8496475l6.2204742 -9.10376l1.4041977 -1.3852463l0.099739075 -17.612003z" fill-rule="evenodd"/><path fill="#e70069" d="m63.587925 98.86877l113.06038 0.39107513l-3.9107666 11.87664l-6.152237 9.477692l-7.259842 8.448814l-9.813644 8.81102l-10.005249 7.6640472l-8.307083 5.3858337l-7.0 4.4514465l-4.3254623 1.4855499l-5.249344 -2.3490753l-8.194229 -5.1259766l-9.845139 -6.923889l-10.398956 -8.375336l-11.060364 -11.49868l-8.4461975 -12.737534z" fill-rule="evenodd"/><path fill="#ff7eb8" d="m64.86352 99.09449c0 -1.119339 5.808731 -2.192833 16.14833 -2.9843292c10.339607 -0.79148865 24.363121 -1.236145 38.985527 -1.236145l0 0c30.449585 0 55.133865 1.8895721 55.133865 4.2204742l0 0c0 2.330902 -24.68428 4.2204742 -55.133865 4.2204742l0 0c-30.449593 0 -55.133858 -1.8895721 -55.133858 -4.2204742z" fill-rule="evenodd"/><path fill="#ffffff" fill-opacity="0.1" d="m107.93438 62.233597l0 0c0 -0.4609642 0.37368774 -0.83464813 0.83464813 -0.83464813l22.456696 0c0.22135925 0 0.4336548 0.0879364 0.59017944 0.24446487c0.15652466 0.15652466 0.24446106 0.3688202 0.24446106 0.59018326l0 0l0 0c0 0.4609604 -0.3736725 0.8346443 -0.8346405 0.8346443l-22.456696 0c-0.4609604 0 -0.83464813 -0.37368393 -0.83464813 -0.8346443z" fill-rule="evenodd"/><path stroke="#ffe2f0" stroke-width="4.0" stroke-linejoin="round" stroke-linecap="butt" d="m107.93438 62.233597l0 0c0 -0.4609642 0.37368774 -0.83464813 0.83464813 -0.83464813l22.456696 0c0.22135925 0 0.4336548 0.0879364 0.59017944 0.24446487c0.15652466 0.15652466 0.24446106 0.3688202 0.24446106 0.59018326l0 0l0 0c0 0.4609604 -0.3736725 0.8346443 -0.8346405 0.8346443l-22.456696 0c-0.4609604 0 -0.83464813 -0.37368393 -0.83464813 -0.8346443z" fill-rule="evenodd"/><path fill="#ffffff" fill-opacity="0.1" d="m110.020996 171.03674l8.532814 -1.6692963l2.871376 0l8.532822 1.6692963z" fill-rule="evenodd"/><path stroke="#ffe2f0" stroke-width="4.0" stroke-linejoin="round" stroke-linecap="butt" d="m110.020996 171.03674l8.532814 -1.6692963l2.871376 0l8.532822 1.6692963z" fill-rule="evenodd"/><path fill="#000000" fill-opacity="0.0" d="m118.87139 157.72047l0 0c0 -0.20584106 0.16687012 -0.37271118 0.37271118 -0.37271118l1.490799 0l0 0c0.098846436 0 0.19364929 0.039276123 0.26354218 0.109176636c0.06990051 0.069885254 0.10916901 0.16468811 0.10916901 0.26353455l0 11.758514c0 0.20585632 -0.16687012 0.37271118 -0.37271118 0.37271118l-1.490799 0c-0.20584106 0 -0.37271118 -0.16685486 -0.37271118 -0.37271118z" fill-rule="evenodd"/><path stroke="#ffe2f0" stroke-width="4.0" stroke-linejoin="round" stroke-linecap="butt" d="m118.87139 157.72047l0 0c0 -0.20584106 0.16687012 -0.37271118 0.37271118 -0.37271118l1.490799 0l0 0c0.098846436 0 0.19364929 0.039276123 0.26354218 0.109176636c0.06990051 0.069885254 0.10916901 0.16468811 0.10916901 0.26353455l0 11.758514c0 0.20585632 -0.16687012 0.37271118 -0.37271118 0.37271118l-1.490799 0c-0.20584106 0 -0.37271118 -0.16685486 -0.37271118 -0.37271118z" fill-rule="evenodd"/><path fill="#d28b50" d="m111.54855 56.045612l0 0c0 -7.6293945E-5 6.866455E-5 -1.411438E-4 1.449585E-4 -1.411438E-4l16.881752 1.411438E-4c3.0517578E-5 0 7.6293945E-5 1.5258789E-5 9.1552734E-5 4.196167E-5c3.0517578E-5 2.670288E-5 4.5776367E-5 6.1035156E-5 4.5776367E-5 9.918213E-5l-1.373291E-4 6.1674423c0 8.010864E-5 -6.1035156E-5 1.411438E-4 -1.373291E-4 1.411438E-4l-16.88176 -1.411438E-4l0 0c-7.6293945E-5 0 -1.373291E-4 -6.1035156E-5 -1.373291E-4 -1.373291E-4z" fill-rule="evenodd"/><path fill="#ffb170" d="m111.56431 55.86113l0 0c0 -0.916275 3.7791367 -1.6590614 8.440941 -1.6590614l0 0c4.661804 0 8.4409485 0.7427864 8.4409485 1.6590614l0 0c0 0.916275 -3.7791443 1.6590614 -8.4409485 1.6590614l0 0c-4.661804 0 -8.440941 -0.7427864 -8.440941 -1.6590614z" fill-rule="evenodd"/><path fill="#9e693d" d="m114.728676 58.78512l0 0c0 -0.33919907 0.5005951 -0.6141739 1.1181107 -0.6141739l0 0c0.61751556 0 1.1181107 0.27497482 1.1181107 0.6141739l0 0c0 0.33919525 -0.5005951 0.6141701 -1.1181107 0.6141701l0 0c-0.61751556 0 -1.1181107 -0.27497482 -1.1181107 -0.6141701z" fill-rule="evenodd"/><path fill="#9e693d" d="m120.47474 58.790108l0 0c0 -0.33919525 0.5005951 -0.6141701 1.1181107 -0.6141701l0 0c0.61751556 0 1.1181107 0.27497482 1.1181107 0.6141701l0 0c0 0.33919907 -0.5005951 0.6141739 -1.1181107 0.6141739l0 0c-0.61751556 0 -1.1181107 -0.27497482 -1.1181107 -0.6141739z" fill-rule="evenodd"/><path fill="#9e693d" d="m125.82185 58.789417l0 0c0 -0.33919525 0.5005951 -0.6141701 1.1181107 -0.6141701l0 0c0.61750793 0 1.1181107 0.27497482 1.1181107 0.6141701l0 0c0 0.33919907 -0.5006027 0.6141739 -1.1181107 0.6141739l0 0c-0.61751556 0 -1.1181107 -0.27497482 -1.1181107 -0.6141739z" fill-rule="evenodd"/><path fill="#d28b50" d="m112.937004 55.55643l0 0c0 -0.33919907 0.5005951 -0.6141739 1.1181107 -0.6141739l0 0c0.61751556 0 1.1181107 0.27497482 1.1181107 0.6141739l0 0c0 0.33919907 -0.5005951 0.6141739 -1.1181107 0.6141739l0 0c-0.61751556 0 -1.1181107 -0.27497482 -1.1181107 -0.6141739z" fill-rule="evenodd"/><path fill="#d28b50" d="m117.97507 55.006443l0 0c0 -0.33919907 0.6416092 -0.6141739 1.4330673 -0.6141739l0 0c0.79146576 0 1.433075 0.27497482 1.433075 0.6141739l0 0c0 0.33919907 -0.6416092 0.6141701 -1.433075 0.6141701l0 0c-0.79145813 0 -1.4330673 -0.274971 -1.4330673 -0.6141701z" fill-rule="evenodd"/><path fill="#d28b50" d="m115.608925 56.6582l0 0c0 -0.269619 0.6416092 -0.48818588 1.4330673 -0.48818588l0 0c0.79146576 0 1.433075 0.2185669 1.433075 0.48818588l0 0c0 0.2696228 -0.6416092 0.4881897 -1.433075 0.4881897l0 0c-0.79145813 0 -1.4330673 -0.2185669 -1.4330673 -0.4881897z" fill-rule="evenodd"/><path fill="#d28b50" d="m120.1601 56.658268l0 0c0 -0.269619 0.6416092 -0.4881897 1.433075 -0.4881897l0 0c0.79145813 0 1.4330673 0.21857071 1.4330673 0.4881897l0 0c0 0.269619 -0.6416092 0.4881897 -1.4330673 0.4881897l0 0c-0.79146576 0 -1.433075 -0.21857071 -1.433075 -0.4881897z" fill-rule="evenodd"/><path fill="#d28b50" d="m123.14698 55.430813l0 0c0 -0.33919907 0.6416092 -0.6141739 1.433075 -0.6141739l0 0c0.79145813 0 1.4330673 0.27497482 1.4330673 0.6141739l0 0c0 0.33919907 -0.6416092 0.6141739 -1.4330673 0.6141739l0 0c-0.79146576 0 -1.433075 -0.27497482 -1.433075 -0.6141739z" fill-rule="evenodd"/><path fill="#9e693d" d="m111.855644 60.356285l0 0c0 -0.67839813 0.5005951 -1.2283478 1.1181107 -1.2283478l0 0c0.2965393 0 0.5809326 0.12941742 0.7906189 0.35977554c0.20968628 0.23035812 0.32749176 0.5427933 0.32749176 0.86857224l0 0c0 0.67839813 -0.5005951 1.2283478 -1.1181107 1.2283478l0 0c-0.61751556 0 -1.1181107 -0.54994965 -1.1181107 -1.2283478z" fill-rule="evenodd"/><path fill="#9e693d" d="m117.6017 60.357155l0 0c0 -0.60881805 0.50058746 -1.1023636 1.118103 -1.1023636l0 0c0.29654694 0 0.58094025 0.11614227 0.7906265 0.32287598c0.20968628 0.2067337 0.32748413 0.48712158 0.32748413 0.7794876l0 0c0 0.60881805 -0.5005951 1.1023598 -1.1181107 1.1023598l0 0c-0.61751556 0 -1.118103 -0.49354172 -1.118103 -1.1023598z" fill-rule="evenodd"/><path fill="#9e693d" d="m123.14698 60.356956l0 0c0 -0.60881805 0.5005951 -1.1023636 1.1181107 -1.1023636l0 0c0.2965393 0 0.58094025 0.11614227 0.7906265 0.32287598c0.20968628 0.2067337 0.32748413 0.48712158 0.32748413 0.7794876l0 0c0 0.60881805 -0.5005951 1.1023636 -1.1181107 1.1023636l0 0c-0.61751556 0 -1.1181107 -0.49354553 -1.1181107 -1.1023636z" fill-rule="evenodd"/><path fill="#ffffff" fill-opacity="0.75" d="m121.74803 66.63781l0 0c0 -0.29572296 0.2397232 -0.53544617 0.53544617 -0.53544617l2.1417084 0l0 0c0.14200592 0 0.27819824 0.056411743 0.37861633 0.15682983c0.10041809 0.10041046 0.15682983 0.23660278 0.15682983 0.37861633l0 12.598396c0 0.29572296 -0.23973083 0.53544617 -0.53544617 0.53544617l-2.1417084 0c-0.29572296 0 -0.53544617 -0.2397232 -0.53544617 -0.53544617z" fill-rule="evenodd"/><path fill="#e70069" d="m82.42651 97.10994l0 0c0 -1.452385 -2.2344894 -2.629776 -4.9908676 -2.629776l0 0c-2.7563782 0 -4.9908676 1.177391 -4.9908676 2.629776l0 0c0 1.452385 2.2344894 2.629776 4.9908676 2.629776l0 0c2.7563782 0 4.9908676 -1.177391 4.9908676 -2.629776z" fill-rule="evenodd"/><path stroke="#ff7eb8" stroke-width="1.0" stroke-linejoin="round" stroke-linecap="butt" d="m82.42651 97.10994l0 0c0 -1.452385 -2.2344894 -2.629776 -4.9908676 -2.629776l0 0c-2.7563782 0 -4.9908676 1.177391 -4.9908676 2.629776l0 0c0 1.452385 2.2344894 2.629776 4.9908676 2.629776l0 0c2.7563782 0 4.9908676 -1.177391 4.9908676 -2.629776z" fill-rule="evenodd"/><path fill="#ffcfe5" d="m80.87964 96.56682l0 0c0 -0.5581894 -0.79971313 -1.0106964 -1.7862091 -1.0106964l0 0c-0.986496 0 -1.7862015 0.45250702 -1.7862015 1.0106964l0 0c0 0.558197 0.7997055 1.0106964 1.7862015 1.0106964l0 0c0.986496 0 1.7862091 -0.4524994 1.7862091 -1.0106964z" fill-rule="evenodd"/><path fill="#e70069" d="m97.92133 95.15621l0 0c0 -1.1349182 -1.4489975 -2.054947 -3.2364273 -2.054947l0 0c-1.7874374 0 -3.236435 0.9200287 -3.236435 2.054947l0 0c0 1.1349182 1.4489975 2.054947 3.236435 2.054947l0 0c1.7874298 0 3.2364273 -0.9200287 3.2364273 -2.054947z" fill-rule="evenodd"/><path stroke="#ff7eb8" stroke-width="1.0" stroke-linejoin="round" stroke-linecap="butt" d="m97.92133 95.15621l0 0c0 -1.1349182 -1.4489975 -2.054947 -3.2364273 -2.054947l0 0c-1.7874374 0 -3.236435 0.9200287 -3.236435 2.054947l0 0c0 1.1349182 1.4489975 2.054947 3.236435 2.054947l0 0c1.7874298 0 3.2364273 -0.9200287 3.2364273 -2.054947z" fill-rule="evenodd"/><path fill="#ffcfe5" d="m96.91823 94.731804l0 0c0 -0.4361801 -0.5185852 -0.78977203 -1.1583023 -0.78977203l0 0c-0.6397095 0 -1.1583023 0.35359192 -1.1583023 0.78977203l0 0c0 0.43618774 0.51859283 0.78977966 1.1583023 0.78977966l0 0c0.6397171 0 1.1583023 -0.35359192 1.1583023 -0.78977966z" fill-rule="evenodd"/><path fill="#e70069" d="m164.83557 97.11003l0 0c0 -1.452385 -1.7590485 -2.629776 -3.928955 -2.629776l0 0c-2.1699066 0 -3.928955 1.177391 -3.928955 2.629776l0 0c0 1.452385 1.7590485 2.629776 3.928955 2.629776l0 0c2.1699066 0 3.928955 -1.177391 3.928955 -2.629776z" fill-rule="evenodd"/><path stroke="#ff7eb8" stroke-width="1.0" stroke-linejoin="round" stroke-linecap="butt" d="m164.83557 97.11003l0 0c0 -1.452385 -1.7590485 -2.629776 -3.928955 -2.629776l0 0c-2.1699066 0 -3.928955 1.177391 -3.928955 2.629776l0 0c0 1.452385 1.7590485 2.629776 3.928955 2.629776l0 0c2.1699066 0 3.928955 -1.177391 3.928955 -2.629776z" fill-rule="evenodd"/><path fill="#ffcfe5" d="m163.61783 96.5669l0 0c0 -0.5581894 -0.6295624 -1.0106964 -1.4061584 -1.0106964l0 0c-0.77659607 0 -1.4061584 0.45250702 -1.4061584 1.0106964l0 0c0 0.558197 0.6295624 1.010704 1.4061584 1.010704l0 0c0.77659607 0 1.4061584 -0.45250702 1.4061584 -1.010704z" fill-rule="evenodd"/><path fill="#e70069" d="m131.93266 95.10719l0 0c0 -1.452385 -1.7590485 -2.629776 -3.928955 -2.629776l0 0c-2.1699066 0 -3.9289627 1.177391 -3.9289627 2.629776l0 0c0 1.452385 1.7590561 2.629776 3.9289627 2.629776l0 0c2.1699066 0 3.928955 -1.177391 3.928955 -2.629776z" fill-rule="evenodd"/><path stroke="#ff7eb8" stroke-width="1.0" stroke-linejoin="round" stroke-linecap="butt" d="m131.93266 95.10719l0 0c0 -1.452385 -1.7590485 -2.629776 -3.928955 -2.629776l0 0c-2.1699066 0 -3.9289627 1.177391 -3.9289627 2.629776l0 0c0 1.452385 1.7590561 2.629776 3.9289627 2.629776l0 0c2.1699066 0 3.928955 -1.177391 3.928955 -2.629776z" fill-rule="evenodd"/><path fill="#ffcfe5" d="m130.71492 94.56407l0 0c0 -0.558197 -0.6295624 -1.0106964 -1.4061584 -1.0106964l0 0c-0.77659607 0 -1.4061508 0.4524994 -1.4061508 1.0106964l0 0c0 0.5581894 0.62955475 1.0106964 1.4061508 1.0106964l0 0c0.77659607 0 1.4061584 -0.45250702 1.4061584 -1.0106964z" fill-rule="evenodd"/><path fill="#e70069" d="m90.04777 99.78648l0 0c0 -1.1349106 -1.4242859 -2.054947 -3.1812286 -2.054947l0 0c-1.7569427 0 -3.1812286 0.9200363 -3.1812286 2.054947l0 0c0 1.1349182 1.4242859 2.054947 3.1812286 2.054947l0 0c1.7569427 0 3.1812286 -0.9200287 3.1812286 -2.054947z" fill-rule="evenodd"/><path stroke="#ff7eb8" stroke-width="1.0" stroke-linejoin="round" stroke-linecap="butt" d="m90.04777 99.78648l0 0c0 -1.1349106 -1.4242859 -2.054947 -3.1812286 -2.054947l0 0c-1.7569427 0 -3.1812286 0.9200363 -3.1812286 2.054947l0 0c0 1.1349182 1.4242859 2.054947 3.1812286 2.054947l0 0c1.7569427 0 3.1812286 -0.9200287 3.1812286 -2.054947z" fill-rule="evenodd"/><path fill="#ffcfe5" d="m89.061775 99.36208l0 0c0 -0.4361801 -0.50974274 -0.78977966 -1.1385498 -0.78977966l0 0c-0.62879944 0 -1.1385422 0.35359955 -1.1385422 0.78977966l0 0c0 0.4361801 0.50974274 0.78977203 1.1385422 0.78977203l0 0c0.62880707 0 1.1385498 -0.35359192 1.1385498 -0.78977203z" fill-rule="evenodd"/><path fill="#e70069" d="m112.91986 99.59801l0 0c0 -1.452385 -2.3068237 -2.629776 -5.1524353 -2.629776l0 0c-2.8456192 0 -5.152443 1.177391 -5.152443 2.629776l0 0c0 1.452385 2.3068237 2.629776 5.152443 2.629776l0 0c2.8456116 0 5.1524353 -1.177391 5.1524353 -2.629776z" fill-rule="evenodd"/><path stroke="#ff7eb8" stroke-width="1.0" stroke-linejoin="round" stroke-linecap="butt" d="m112.91986 99.59801l0 0c0 -1.452385 -2.3068237 -2.629776 -5.1524353 -2.629776l0 0c-2.8456192 0 -5.152443 1.177391 -5.152443 2.629776l0 0c0 1.452385 2.3068237 2.629776 5.152443 2.629776l0 0c2.8456116 0 5.1524353 -1.177391 5.1524353 -2.629776z" fill-rule="evenodd"/><path fill="#ffcfe5" d="m111.32291 99.054886l0 0c0 -0.5581894 -0.8255997 -1.0106964 -1.8440323 -1.0106964l0 0c-1.018425 0 -1.8440323 0.45250702 -1.8440323 1.0106964l0 0c0 0.5581894 0.8256073 1.0106964 1.8440323 1.0106964l0 0c1.0184326 0 1.8440323 -0.45250702 1.8440323 -1.0106964z" fill-rule="evenodd"/><path fill="#e70069" d="m124.39882 99.96207l0 0c0 -1.1342163 -1.1069946 -2.0536804 -2.4725418 -2.0536804l0 0c-1.3655472 0 -2.4725418 0.9194641 -2.4725418 2.0536804l0 0c0 1.1342163 1.1069946 2.0536804 2.4725418 2.0536804l0 0c1.3655472 0 2.4725418 -0.9194641 2.4725418 -2.0536804z" fill-rule="evenodd"/><path stroke="#ff7eb8" stroke-width="1.0" stroke-linejoin="round" stroke-linecap="butt" d="m124.39882 99.96207l0 0c0 -1.1342163 -1.1069946 -2.0536804 -2.4725418 -2.0536804l0 0c-1.3655472 0 -2.4725418 0.9194641 -2.4725418 2.0536804l0 0c0 1.1342163 1.1069946 2.0536804 2.4725418 2.0536804l0 0c1.3655472 0 2.4725418 -0.9194641 2.4725418 -2.0536804z" fill-rule="evenodd"/><path fill="#ffcfe5" d="m123.63248 99.537926l0 0c0 -0.4359131 -0.39618683 -0.7892914 -0.8849106 -0.7892914l0 0c-0.48872375 0 -0.8849106 0.3533783 -0.8849106 0.7892914l0 0c0 0.4359131 0.39618683 0.78928375 0.8849106 0.78928375l0 0c0.48872375 0 0.8849106 -0.35337067 0.8849106 -0.78928375z" fill-rule="evenodd"/><path fill="#e70069" d="m143.19693 100.44341l0 0c0 -1.1349182 -1.4490051 -2.054947 -3.236435 -2.054947l0 0c-1.7874298 0 -3.236435 0.9200287 -3.236435 2.054947l0 0c0 1.1349182 1.4490051 2.054947 3.236435 2.054947l0 0c1.7874298 0 3.236435 -0.9200287 3.236435 -2.054947z" fill-rule="evenodd"/><path stroke="#ff7eb8" stroke-width="1.0" stroke-linejoin="round" stroke-linecap="butt" d="m143.19693 100.44341l0 0c0 -1.1349182 -1.4490051 -2.054947 -3.236435 -2.054947l0 0c-1.7874298 0 -3.236435 0.9200287 -3.236435 2.054947l0 0c0 1.1349182 1.4490051 2.054947 3.236435 2.054947l0 0c1.7874298 0 3.236435 -0.9200287 3.236435 -2.054947z" fill-rule="evenodd"/><path fill="#ffcfe5" d="m142.19383 100.019005l0 0c0 -0.4361801 -0.51860046 -0.78977203 -1.1583099 -0.78977203l0 0c-0.6397095 0 -1.1582947 0.35359192 -1.1582947 0.78977203l0 0c0 0.4361801 0.5185852 0.78977966 1.1582947 0.78977966l0 0c0.6397095 0 1.1583099 -0.35359955 1.1583099 -0.78977966z" fill-rule="evenodd"/><path fill="#e70069" d="m115.61468 94.31882l0 0c0 -1.1349106 -1.4242859 -2.054947 -3.1812286 -2.054947l0 0c-1.7569504 0 -3.1812286 0.9200363 -3.1812286 2.054947l0 0c0 1.1349182 1.4242783 2.0549545 3.1812286 2.0549545l0 0c1.7569427 0 3.1812286 -0.9200363 3.1812286 -2.0549545z" fill-rule="evenodd"/><path stroke="#ff7eb8" stroke-width="1.0" stroke-linejoin="round" stroke-linecap="butt" d="m115.61468 94.31882l0 0c0 -1.1349106 -1.4242859 -2.054947 -3.1812286 -2.054947l0 0c-1.7569504 0 -3.1812286 0.9200363 -3.1812286 2.054947l0 0c0 1.1349182 1.4242783 2.0549545 3.1812286 2.0549545l0 0c1.7569427 0 3.1812286 -0.9200363 3.1812286 -2.0549545z" fill-rule="evenodd"/><path fill="#ffcfe5" d="m114.62868 93.89442l0 0c0 -0.4361801 -0.50974274 -0.78977203 -1.1385422 -0.78977203l0 0c-0.62879944 0 -1.1385422 0.35359192 -1.1385422 0.78977203l0 0c0 0.4361801 0.50974274 0.78977203 1.1385422 0.78977203l0 0c0.62879944 0 1.1385422 -0.35359192 1.1385422 -0.78977203z" fill-rule="evenodd"/><path fill="#e70069" d="m147.94524 95.396774l0 0c0 -1.1349182 -1.5623322 -2.054947 -3.489563 -2.054947l0 0c-1.9272308 0 -3.489563 0.9200287 -3.489563 2.054947l0 0c0 1.1349182 1.5623322 2.054947 3.489563 2.054947l0 0c1.9272308 0 3.489563 -0.9200287 3.489563 -2.054947z" fill-rule="evenodd"/><path stroke="#ff7eb8" stroke-width="1.0" stroke-linejoin="round" stroke-linecap="butt" d="m147.94524 95.396774l0 0c0 -1.1349182 -1.5623322 -2.054947 -3.489563 -2.054947l0 0c-1.9272308 0 -3.489563 0.9200287 -3.489563 2.054947l0 0c0 1.1349182 1.5623322 2.054947 3.489563 2.054947l0 0c1.9272308 0 3.489563 -0.9200287 3.489563 -2.054947z" fill-rule="evenodd"/><path fill="#ffcfe5" d="m146.86368 94.972374l0 0c0 -0.4361801 -0.55914307 -0.78977966 -1.2488861 -0.78977966l0 0c-0.6897583 0 -1.2489014 0.35359955 -1.2489014 0.78977966l0 0c0 0.4361801 0.55914307 0.78977203 1.2489014 0.78977203l0 0c0.68974304 0 1.2488861 -0.35359192 1.2488861 -0.78977203z" fill-rule="evenodd"/><path fill="#e70069" d="m154.27905 99.4925l0 0c0 -1.1349182 -1.2544861 -2.0549545 -2.8019867 -2.0549545l0 0c-1.5474854 0 -2.8019714 0.9200363 -2.8019714 2.0549545l0 0c0 1.1349106 1.2544861 2.054947 2.8019714 2.054947l0 0c1.5475006 0 2.8019867 -0.9200363 2.8019867 -2.054947z" fill-rule="evenodd"/><path stroke="#ff7eb8" stroke-width="1.0" stroke-linejoin="round" stroke-linecap="butt" d="m154.27905 99.4925l0 0c0 -1.1349182 -1.2544861 -2.0549545 -2.8019867 -2.0549545l0 0c-1.5474854 0 -2.8019714 0.9200363 -2.8019714 2.0549545l0 0c0 1.1349106 1.2544861 2.054947 2.8019714 2.054947l0 0c1.5475006 0 2.8019867 -0.9200363 2.8019867 -2.054947z" fill-rule="evenodd"/><path fill="#ffcfe5" d="m153.4106 99.06809l0 0c0 -0.4361801 -0.4489746 -0.78977203 -1.0028076 -0.78977203l0 0c-0.55384827 0 -1.0028229 0.35359192 -1.0028229 0.78977203l0 0c0 0.4361801 0.4489746 0.78977203 1.0028229 0.78977203l0 0c0.553833 0 1.0028076 -0.35359192 1.0028076 -0.78977203z" fill-rule="evenodd"/><path fill="#ff0060" fill-opacity="0.5" d="m71.94751 89.71916c1.3254547 -3.5091858 6.494751 0 0 4.5118103c-6.494751 -4.5118103 -1.3254623 -8.020996 0 -4.5118103z" fill-rule="evenodd"/><path fill="#ff0060" fill-opacity="0.5" d="m146.00262 87.296585c1.3254547 -3.6010437 6.494751 0 0 4.629921c-6.494751 -4.629921 -1.3254547 -8.230965 0 -4.629921z" fill-rule="evenodd"/><path fill="#ff0060" fill-opacity="0.5" d="m167.4462 88.70735c1.3254547 -3.6010513 6.494751 0 0 4.629921c-6.494751 -4.629921 -1.32547 -8.230972 0 -4.629921z" fill-rule="evenodd"/><path fill="#ff0060" fill-opacity="0.5" d="m94.685036 86.72966c1.5354385 -3.9685059 7.523628 0 0 5.1023636c-7.5236206 -5.1023636 -1.5354309 -9.070869 0 -5.1023636z" fill-rule="evenodd"/><path fill="#cd0f65" d="m128.63303 138.17868c6.7729645 -7.0669403 12.571533 6.3339844 -5.4094467 10.748032c-7.162071 -17.082031 7.0511856 -20.400269 5.4094467 -10.748032z" fill-rule="evenodd"/><path fill="#fa2786" d="m154.42691 119.3281c8.587921 -4.0393753 9.131241 10.095802 -8.645676 7.842514c-0.4855652 -17.938316 13.506561 -16.002625 8.645676 -7.842514z" fill-rule="evenodd"/><path fill="#fa2786" d="m103.386154 135.82312c-1.2178497 -6.0892334 8.616798 -5.0800476 3.826767 6.496063c-12.443565 -1.4160004 -8.561676 -10.51181 -3.826767 -6.496063z" fill-rule="evenodd"/><path fill="#cd0f65" d="m80.33844 110.83477c-2.245407 -9.566925 12.314301 -7.266403 6.1181107 10.3937c-18.432419 -3.1272964 -13.389763 -16.994751 -6.1181107 -10.3937z" fill-rule="evenodd"/><path fill="#ff57a3" d="m105.38578 115.72833c0.4881897 -10.846458 16.076118 -4.5334625 3.5905533 12.755905c-19.666664 -8.222443 -9.66404 -21.751968 -3.5905533 -12.755905z" fill-rule="evenodd"/><path fill="#ff57a3" d="m131.08427 111.61282c4.3241577 -6.368767 12.185699 3.183075 -2.3621979 9.023628c-9.823494 -12.206696 1.7126007 -16.691605 2.3621979 -9.023628z" fill-rule="evenodd"/><path fill="#ff57a3" d="m113.82149 145.36295c0.7992096 -3.9291382 6.0767746 -0.7073517 0.56692505 4.8661346c-6.6436996 -4.158798 -2.2480316 -8.506561 -0.56692505 -4.8661346z" fill-rule="evenodd"/><path fill="#ff57a3" d="m141.3402 135.01323c3.8451385 -1.162735 3.5367432 5.015747 -4.015747 2.81102c0.4790039 -7.826767 6.4173126 -6.020996 4.015747 -2.81102z" fill-rule="evenodd"/><path fill="#cd0f65" d="m135.10318 121.33559c3.0538025 -2.6023636 5.240814 3.1830673 -2.5511932 4.181099c-2.689621 -7.364174 3.4658813 -8.082672 2.5511932 -4.181099z" fill-rule="evenodd"/><path fill="#ff57a3" d="m147.3665 106.7996c1.044632 -3.875328 6.1089325 -0.35367584 0.25984192 4.889763c-6.368759 -4.536087 -1.7086487 -8.620735 -0.25984192 -4.889763z" fill-rule="evenodd"/><path fill="#cd0f65" d="m166.06999 110.027115c3.3241425 -2.245407 4.8549805 3.7618103 -3.0 3.8740158c-1.8549957 -7.635826 4.342514 -7.654854 3.0 -3.8740158z" fill-rule="evenodd"/><path fill="#cd0f65" d="m99.95074 127.98866c-1.8149567 -3.586609 4.3405533 -4.3405457 3.4724426 3.4724426c-7.812996 0.8681183 -7.059059 -5.2873993 -3.4724426 -3.4724426z" fill-rule="evenodd"/><path fill="#fa2786" d="m70.411804 104.48409c-0.08660889 -4.014435 5.787407 -2.025589 1.629921 4.629921c-7.4173203 -2.6043243 -4.0787354 -7.817581 -1.629921 -4.629921z" fill-rule="evenodd"/><path fill="#fa2786" d="m90.89016 105.300064c0.6889801 -3.9685059 6.0767746 -0.9002609 0.70866394 4.8661423c-6.785431 -3.9658813 -2.5 -8.467194 -0.70866394 -4.8661423z" fill-rule="evenodd"/><path fill="#ff57a3" d="m85.180336 125.24071c-1.1994705 -3.8517075 5.0157547 -3.568901 2.8582687 4.015747c-7.874016 -0.44685364 -6.104988 -6.4107666 -2.8582687 -4.015747z" fill-rule="evenodd"/><path fill="#ff57a3" d="m118.4188 127.61776c2.6430435 -3.0603638 5.658798 2.3792648 -1.9133835 4.559059c-3.745407 -6.938324 2.2467194 -8.590553 1.9133835 -4.559059z" fill-rule="evenodd"/><path fill="#cd0f65" d="m103.99543 107.08928c-0.45669556 -4.009186 5.59449 -2.5400314 2.0551147 4.4881897c-7.649605 -1.9481659 -4.795273 -7.4606323 -2.0551147 -4.4881897z" fill-rule="evenodd"/><path fill="#fa2786" d="m118.245926 110.60497c0.9343796 -3.926506 6.108917 -0.5144348 0.40157318 4.913391c-6.510498 -4.3989487 -1.9606323 -8.629921 -0.40157318 -4.913391z" fill-rule="evenodd"/><path fill="#ff0060" fill-opacity="0.5" d="m84.46982 80.049866c1.5223083 -4.1522293 7.4593124 0 0 5.338585c-7.45932 -5.338585 -1.5223083 -9.490814 0 -5.338585z" fill-rule="evenodd"/><path fill="#ff0060" fill-opacity="0.5" d="m104.520996 81.35482c1.36483 -3.6010513 6.687668 0 0 4.629921c-6.68766 -4.629921 -1.36483 -8.230972 0 -4.629921z" fill-rule="evenodd"/><path fill="#ff0060" fill-opacity="0.5" d="m134.23044 83.54462c1.4435577 -3.6010437 7.0734863 0 0 4.629921c-7.073494 -4.629921 -1.443573 -8.230965 0 -4.629921z" fill-rule="evenodd"/><path fill="#ff0060" fill-opacity="0.5" d="m156.08456 78.77165c1.3385925 -3.5091858 6.5590515 0 0 4.5118103c-6.5590515 -4.5118103 -1.3385773 -8.020996 0 -4.5118103z" fill-rule="evenodd"/><path fill="#ffffff" fill-opacity="0.85" d="m148.05225 87.27034l0 0c0 -4.200844 3.5958252 -7.6063004 8.031494 -7.6063004l0 0c2.1300812 0 4.172928 0.80137634 5.679123 2.2278366c1.5061951 1.4264603 2.3523712 3.3611526 2.3523712 5.3784637l0 0c0 4.200844 -3.5958252 7.6063004 -8.031494 7.6063004l0 0c-4.435669 0 -8.031494 -3.4054565 -8.031494 -7.6063004z" fill-rule="evenodd"/><path fill="#ff7eb8" d="m71.57755 98.10234l11.71653 0.06298828l0 1.9212646l-11.71653 -0.06299591z" fill-rule="evenodd"/><path fill="#ff7eb8" d="m81.03279 100.48739l10.236214 -0.06299591l0 1.1338577l-10.236214 0.06299591z" fill-rule="evenodd"/><path fill="#ff7eb8" d="m90.66713 95.922035l8.031494 0l0 1.7952728l-8.031494 0z" fill-rule="evenodd"/><path fill="#ff7eb8" d="m102.43297 100.703415l9.984253 0l0 1.7952728l-9.984253 0z" fill-rule="evenodd"/><path fill="#ff7eb8" d="m107.77688 95.39978l7.8425217 0l0 1.196846l-7.8425217 0z" fill-rule="evenodd"/><path fill="#ff7eb8" d="m117.67189 101.003456l7.8425217 0l0 1.196846l-7.8425217 0z" fill-rule="evenodd"/><path fill="#ff7eb8" d="m123.91601 95.95564l7.8425217 0l0 1.7952728l-7.8425217 0z" fill-rule="evenodd"/><path fill="#ff7eb8" d="m136.59055 101.2809l6.740158 0l0 1.2283478l-6.740158 0z" fill-rule="evenodd"/><path fill="#ff7eb8" d="m148.1063 100.40951l6.740158 0l0 1.2283478l-6.740158 0z" fill-rule="evenodd"/><path fill="#ff7eb8" d="m140.99606 96.496124l6.740158 0l0 1.2283478l-6.740158 0z" fill-rule="evenodd"/><path fill="#ff7eb8" d="m157.53412 98.48038l6.740158 0l0 1.2283478l-6.740158 0z" fill-rule="evenodd"/><path fill="#ffffff" fill-opacity="0.1" d="m120.0 92.026245c23.47113 -50.91076 115.00853 0 0 65.456696c-115.00853 -65.456696 -23.47113 -116.367455 0 -65.456696z" fill-rule="evenodd"/><path stroke="#ffe2f0" stroke-width="4.0" stroke-linejoin="round" stroke-linecap="butt" d="m120.0 92.026245c23.47113 -50.91076 115.00853 0 0 65.456696c-115.00853 -65.456696 -23.47113 -116.367455 0 -65.456696z" fill-rule="evenodd"/><path fill="#ffffff" fill-opacity="0.25" d="m123.12205 101.83089l0 0c0 -4.531349 3.052925 -8.204727 6.818901 -8.204727l0 0c1.8084717 0 3.5428925 0.86442566 4.821686 2.4031067c1.2787933 1.5386887 1.9972076 3.6255875 1.9972076 5.8016205l0 0c0 4.5313416 -3.0529327 8.20472 -6.8188934 8.20472l0 0c-3.765976 0 -6.818901 -3.673378 -6.818901 -8.20472z" fill-rule="evenodd"/><path stroke="#ffe2f0" stroke-width="3.0" stroke-linejoin="round" stroke-linecap="butt" d="m123.12205 101.83089l0 0c0 -4.531349 3.052925 -8.204727 6.818901 -8.204727l0 0c1.8084717 0 3.5428925 0.86442566 4.821686 2.4031067c1.2787933 1.5386887 1.9972076 3.6255875 1.9972076 5.8016205l0 0c0 4.5313416 -3.0529327 8.20472 -6.8188934 8.20472l0 0c-3.765976 0 -6.818901 -3.673378 -6.818901 -8.20472z" fill-rule="evenodd"/><path fill="#ffe2f0" d="m129.42519 98.698166l0 0c0 -1.4524689 1.1069489 -2.629921 2.4724426 -2.629921l0 0c0.6557312 0 1.2846069 0.27707672 1.7482758 0.77027893c0.46366882 0.49320984 0.72416687 1.1621399 0.72416687 1.859642l0 0c0 1.4524612 -1.1069489 2.629921 -2.4724426 2.629921l0 0c-1.3654938 0 -2.4724426 -1.1774597 -2.4724426 -2.629921z" fill-rule="evenodd"/><path fill="#ffffff" fill-opacity="0.25" d="m155.12204 101.83089l0 0c0 -4.531349 3.0529327 -8.204727 6.8189087 -8.204727l0 0c1.8084717 0 3.5428925 0.86442566 4.821686 2.4031067c1.2787933 1.5386887 1.9972076 3.6255875 1.9972076 5.8016205l0 0c0 4.5313416 -3.0529327 8.20472 -6.8188934 8.20472l0 0c-3.765976 0 -6.8189087 -3.673378 -6.8189087 -8.20472z" fill-rule="evenodd"/><path stroke="#ffe2f0" stroke-width="3.0" stroke-linejoin="round" stroke-linecap="butt" d="m155.12204 101.83089l0 0c0 -4.531349 3.0529327 -8.204727 6.8189087 -8.204727l0 0c1.8084717 0 3.5428925 0.86442566 4.821686 2.4031067c1.2787933 1.5386887 1.9972076 3.6255875 1.9972076 5.8016205l0 0c0 4.5313416 -3.0529327 8.20472 -6.8188934 8.20472l0 0c-3.765976 0 -6.8189087 -3.673378 -6.8189087 -8.20472z" fill-rule="evenodd"/><path fill="#ffe2f0" d="m161.42519 98.698166l0 0c0 -1.4524689 1.1069489 -2.629921 2.4724426 -2.629921l0 0c0.6557312 0 1.2846069 0.27707672 1.7482758 0.77027893c0.46366882 0.49320984 0.72416687 1.1621399 0.72416687 1.859642l0 0c0 1.4524612 -1.1069489 2.629921 -2.4724426 2.629921l0 0c-1.3654938 0 -2.4724426 -1.1774597 -2.4724426 -2.629921z" fill-rule="evenodd"/><path fill="#ff0074" fill-opacity="0.75" d="m191.99033 93.563286c2.8205872 -7.76178 13.820908 -0.037590027 0 9.969574c-13.820923 -9.931984 -2.8206024 -17.716011 0 -9.969574z" fill-rule="evenodd"/><path fill="#ffffff" fill-opacity="0.75" d="m194.62177 93.069496l0 0c0 -0.9761429 0.6936188 -1.767456 1.5492249 -1.767456l0 0c0.4108734 0 0.80493164 0.18621063 1.095459 0.5176773c0.2905426 0.33145905 0.45376587 0.7810211 0.45376587 1.2497787l0 0c0 0.9761429 -0.6936188 1.767456 -1.5492249 1.767456l0 0c-0.8556061 0 -1.5492249 -0.7913132 -1.5492249 -1.767456z" fill-rule="evenodd"/><path fill="#ff0074" fill-opacity="0.75" d="m47.99032 93.563286c2.8205948 -7.76178 13.820915 -0.037590027 0 9.969574c-13.820911 -9.931984 -2.8205948 -17.716011 0 -9.969574z" fill-rule="evenodd"/><path fill="#ffffff" fill-opacity="0.75" d="m50.621765 93.069496l0 0c0 -0.9761429 0.69361115 -1.767456 1.5492249 -1.767456l0 0c0.41087723 0 0.8049278 0.18621063 1.0954628 0.5176773c0.2905388 0.33145905 0.45375824 0.7810211 0.45375824 1.2497787l0 0c0 0.9761429 -0.69361115 1.767456 -1.549221 1.767456l0 0c-0.8556137 0 -1.5492249 -0.7913132 -1.5492249 -1.767456z" fill-rule="evenodd"/><path fill="#ff0074" fill-opacity="0.75" d="m153.18803 59.378178c2.117096 -5.220993 10.373764 -0.025283813 0 6.7060738c-10.373764 -6.68079 -2.117096 -11.916748 0 -6.7060738z" fill-rule="evenodd"/><path fill="#ffffff" fill-opacity="0.75" d="m155.16316 59.04603l0 0c0 -0.65660477 0.5206146 -1.1888885 1.1628113 -1.1888885l0 0c0.30841064 0 0.60417175 0.12525558 0.82225037 0.348217c0.21806335 0.22295761 0.34057617 0.5253563 0.34057617 0.84067154l0 0c0 0.65660477 -0.5206146 1.1888847 -1.1628265 1.1888847l0 0c-0.64219666 0 -1.1628113 -0.53227997 -1.1628113 -1.1888847z" fill-rule="evenodd"/><path fill="#ff0074" fill-opacity="0.75" d="m89.188034 59.378178c2.117096 -5.220993 10.373764 -0.025283813 0 6.7060738c-10.373764 -6.68079 -2.117096 -11.916748 0 -6.7060738z" fill-rule="evenodd"/><path fill="#ffffff" fill-opacity="0.75" d="m91.163155 59.04603l0 0c0 -0.65660477 0.5206146 -1.1888885 1.1628265 -1.1888885l0 0c0.3083954 0 0.6041641 0.12525558 0.8222351 0.348217c0.21807098 0.22295761 0.3405838 0.5253563 0.3405838 0.84067154l0 0c0 0.65660477 -0.5206146 1.1888847 -1.1628189 1.1888847l0 0c-0.6422119 0 -1.1628265 -0.53227997 -1.1628265 -1.1888847z" fill-rule="evenodd"/><path fill="#ff0074" fill-opacity="0.75" d="m80.11825 141.64258c2.4233475 -6.582016 11.874382 -0.03187561 0 8.454208c-11.874374 -8.422333 -2.4233398 -15.023209 0 -8.454208z" fill-rule="evenodd"/><path fill="#ffffff" fill-opacity="0.75" d="m82.37909 141.22383l0 0c0 -0.8277588 0.59591675 -1.4988098 1.3310242 -1.4988098l0 0c0.35301208 0 0.69156647 0.15791321 0.941185 0.43899536c0.2496109 0.28108215 0.3898468 0.66230774 0.3898468 1.0598145l0 0c0 0.82777405 -0.5959244 1.4988098 -1.3310318 1.4988098l0 0c-0.7351074 0 -1.3310242 -0.67103577 -1.3310242 -1.4988098z" fill-rule="evenodd"/><path fill="#ff0074" fill-opacity="0.75" d="m160.11826 141.64258c2.4233398 -6.582016 11.874374 -0.03187561 0 8.454208c-11.87439 -8.422333 -2.423355 -15.023209 0 -8.454208z" fill-rule="evenodd"/><path fill="#ffffff" fill-opacity="0.75" d="m162.37909 141.22383l0 0c0 -0.8277588 0.59591675 -1.4988098 1.3310242 -1.4988098l0 0c0.35301208 0 0.69155884 0.15791321 0.94117737 0.43899536c0.24961853 0.28108215 0.38986206 0.66230774 0.38986206 1.0598145l0 0c0 0.82777405 -0.595932 1.4988098 -1.3310394 1.4988098l0 0c-0.7351074 0 -1.3310242 -0.67103577 -1.3310242 -1.4988098z" fill-rule="evenodd"/></g></svg>